<svg id="Layer_1" data-name="Layer 1" xmlns="http://www.w3.org/2000/svg" width="250" height="250" viewBox="0 0 250 250"><g id="Page-1"><g id="_1.120-Book-a-Dev_Wiz_Project_2" data-name="1.120-Book-a-Dev_Wiz_Project_2"><g id="Group-8"><g id="Php"><g id="icons8-responsive"><path id="Shape" d="M16.3,11A16.35,16.35,0,0,0,0,27.3V179.7A16.35,16.35,0,0,0,16.3,196H98v16H86.3A16.35,16.35,0,0,0,70,228.3V239H179V228.3A16.35,16.35,0,0,0,162.7,212H152V196h81.7A16.35,16.35,0,0,0,250,179.7V27.3A16.35,16.35,0,0,0,233.7,11Zm.13,11H233.57A5.43,5.43,0,0,1,239,27.43V179.57a5.43,5.43,0,0,1-5.43,5.43H16.43A5.43,5.43,0,0,1,11,179.57V27.43a5.68,5.68,0,0,1,.34-2.2A5.41,5.41,0,0,1,16.43,22ZM103,65.87v70.26A10.9,10.9,0,0,0,113.87,147h98.26A10.9,10.9,0,0,0,223,136.13V65.87A10.9,10.9,0,0,0,212.13,55H113.87A10.9,10.9,0,0,0,103,65.87ZM114,65h98v71H114ZM54.35,119.7a5.44,5.44,0,1,0,5.43,5.43A5.44,5.44,0,0,0,54.35,119.7ZM125,168.61a5.44,5.44,0,1,0,5.43,5.43A5.44,5.44,0,0,0,125,168.61ZM108,196h33v16H108ZM87,223H163a5.14,5.14,0,0,1,5.44,5h-87A5.14,5.14,0,0,1,87,223Z" fill="#12021e" opacity="0.8" style="isolation:isolate"/><path id="Path" d="M163,119.7a5.44,5.44,0,1,0,5.44,5.43A5.44,5.44,0,0,0,163,119.7Z" fill="#2fadd6"/><path id="Combined-Shape" d="M70.2,55A10.88,10.88,0,0,1,81,65.82h0v70.36A10.88,10.88,0,0,1,70.2,147H37.8A10.88,10.88,0,0,1,27,136.18h0V65.82A10.88,10.88,0,0,1,37.8,55H70.2ZM71,65H38v71H71Z" fill="#2fadd6"/></g></g></g></g></g></svg>