<svg id="Layer_1" data-name="Layer 1" xmlns="http://www.w3.org/2000/svg" width="250" height="250" viewBox="0 0 250 250"><g id="Page-1"><g id="_1.120-Book-a-Dev_Wiz_Project_2" data-name="1.120-Book-a-Dev_Wiz_Project_2"><g id="Group-8"><g id="NodeJS"><g id="icons8-design"><path id="Shape" d="M48.05,14.53l8.3,8.3-6.54,6.54,7.34,7.35,6.55-6.55,8,8L60,49.81l7.34,7.34L79,45.5l8,8L80.46,60l7.34,7.34,6.55-6.55,8,8L90.68,80.46,98,87.8l11.65-11.65,8,8-6.55,6.55,6.55,6.54-27,27L14.53,48.05ZM48.05,0,44.38,3.51,3.51,44.38,0,48.05l3.51,3.67,79.82,79.83-64,64a5.22,5.22,0,0,0-1.44,2.24L7.66,236.11a5.12,5.12,0,0,0,6.23,6.23L52.2,232.12a5.22,5.22,0,0,0,2.24-1.44L231,54.12,235.15,50A24.83,24.83,0,1,0,200,14.85L131.55,83.33,51.72,3.51Zm155,26.18,20.75,20.75L48.21,222.54,27.46,201.79Z" fill="#12021e" opacity="0.8" style="isolation:isolate"/><path id="Combined-Shape" d="M48.05,0l3.67,3.51,79.83,79.82L83.33,131.55,3.51,51.72,0,48.05l3.51-3.67L44.38,3.51Zm0,14.53L14.53,48.05,90.68,124.2l27-27-6.55-6.54,6.55-6.55-8-8L98,87.8l-7.34-7.34,11.65-11.65-8-8L87.8,67.37,80.46,60,87,53.48l-8-8L67.37,57.15,60,49.81,71.68,38.15l-8-8-6.55,6.55-7.34-7.35,6.54-6.54Z" fill="#2fadd6" fill-rule="evenodd"/><polygon id="Path" points="170.98 122.92 167.31 126.44 157.09 136.65 164.43 144 170.98 137.45 178.96 145.43 167.31 157.09 174.65 164.43 186.3 152.78 194.28 160.76 187.74 167.31 195.08 174.65 201.63 168.1 209.61 176.09 197.96 187.74 205.3 195.08 216.95 183.43 224.94 191.41 218.39 197.96 225.73 205.3 232.28 198.75 235.47 201.95 201.95 235.47 130.11 163.79 122.92 170.98 198.28 246.49 201.95 250 205.62 246.49 246.49 205.62 250 201.95 246.49 198.28 170.98 122.92" fill="#2fadd6"/></g></g></g></g></g></svg>