<svg id="Layer_1" data-name="Layer 1" xmlns="http://www.w3.org/2000/svg" width="250" height="250" viewBox="0 0 250 250"><path id="Shape" d="M16.3,10.5A16.35,16.35,0,0,0,0,26.8V179.2a16.35,16.35,0,0,0,16.3,16.3H98v16H86.3A16.35,16.35,0,0,0,70,227.8v11.7H179V227.8a16.35,16.35,0,0,0-16.3-16.3H152v-16h81.7A16.35,16.35,0,0,0,250,179.2V26.8a16.35,16.35,0,0,0-16.3-16.3Zm.13,11H233.57A5.43,5.43,0,0,1,239,26.93V179.07a5.43,5.43,0,0,1-5.43,5.43H16.43A5.43,5.43,0,0,1,11,179.07V26.93a5.68,5.68,0,0,1,.34-2.2A5.41,5.41,0,0,1,16.43,21.5ZM125,168.61a5.44,5.44,0,1,0,5.43,5.43A5.44,5.44,0,0,0,125,168.61ZM108,195.5h33v16H108Zm-21,28H163a5.14,5.14,0,0,1,5.44,5h-87A5.14,5.14,0,0,1,87,223.5Z" fill="#12021e" opacity="0.8" style="isolation:isolate"/><polyline id="Path-2-Copy" points="160 81 180 101 160 121" fill="none" stroke="#2fadd6" stroke-linecap="round" stroke-linejoin="round" stroke-width="7"/><polyline id="Path-2-Copy-2" points="95 81 75 101 95 121" fill="none" stroke="#2fadd6" stroke-linecap="round" stroke-linejoin="round" stroke-width="7"/><line id="Path-3" x1="115" y1="136" x2="140" y2="61" stroke-width="7" stroke="#2fadd6" stroke-linecap="round" stroke-linejoin="round" fill="none"/></svg>