<svg id="Layer_1" data-name="Layer 1" xmlns="http://www.w3.org/2000/svg" width="250" height="250" viewBox="0 0 250 250"><g id="Page-1"><g id="_1.120-Book-a-Dev_Wiz_Project_2" data-name="1.120-Book-a-Dev_Wiz_Project_2"><g id="Group-8"><g id="NodeJS-Copy"><g id="icons8-pass_fail" data-name="icons8-pass fail"><path id="Shape" d="M125-.1a20.68,20.68,0,0,0-19.87,15.6H41.62A15.67,15.67,0,0,0,26,31.12V233.87A15.67,15.67,0,0,0,41.62,249.5H208.38A15.67,15.67,0,0,0,224,233.87V31.12A15.67,15.67,0,0,0,208.38,15.5H144.87A20.68,20.68,0,0,0,125-.1Zm-.5,11.6A10.18,10.18,0,0,1,135,21.4a5.19,5.19,0,0,0,5.2,5.1H156v10H93v-10h15.8a5.19,5.19,0,0,0,5.2-5.1A10.18,10.18,0,0,1,124.5,11.5Zm-83.29,14H83V41.29a5.22,5.22,0,0,0,5.21,5.21h72.58A5.22,5.22,0,0,0,166,41.29V25.5h41.79A5.21,5.21,0,0,1,213,30.71V234.29a5.21,5.21,0,0,1-5.21,5.21H41.21A5.21,5.21,0,0,1,36,234.29V30.71A5.21,5.21,0,0,1,41.21,25.5Zm26.08,79a5,5,0,1,0,1.4,10h50a5,5,0,1,0,0-10H67.29Zm78,51.59c-.22,0-.44.1-.65.16a5.2,5.2,0,0,0-2.6,8.95l11.88,11.88L142.05,189a5.3,5.3,0,0,0,7.49,7.49l11.88-11.88,11.88,11.88a5.3,5.3,0,0,0,7.49-7.49L168.9,177.08l11.89-11.88a5.3,5.3,0,0,0-7.49-7.49L161.42,169.6l-11.88-11.89A5.28,5.28,0,0,0,145.3,156.09Zm-78,16.41a5,5,0,0,0,1.4,10h50a5,5,0,1,0,0-10H67.29Z" fill="#12021e" opacity="0.8" style="isolation:isolate"/><path id="Path" d="M182.25,88.22a5.28,5.28,0,0,0-.81.16,2,2,0,0,0-.33.16,5.22,5.22,0,0,0-3.25,2.28L160.6,116.7l-11.06-11.07A5.25,5.25,0,0,0,145.3,104c-.22,0-.44.11-.65.17a5.2,5.2,0,0,0-2.6,9l15,15a2.57,2.57,0,0,0,.33.33l.32.32.17.17.16.16.16.16a6.59,6.59,0,0,0,.65.33,2.49,2.49,0,0,0,.33.16c.1.06.32-.22.32-.22h.65l.33,1h.65a.69.69,0,0,1,1,0h.16a3.4,3.4,0,0,1,1.14-.62l.33-.16a4.5,4.5,0,0,0,.48-.16,2.06,2.06,0,0,0,.33-.33,2.39,2.39,0,0,0,.32-.16,2.53,2.53,0,0,0,.49-.49,5.25,5.25,0,0,0,.33-.49l.16-.16.16-.16c.06-.17.13-.33.17-.49l20.5-30.6a5.2,5.2,0,0,0-4.39-8.46Z" fill="#2fadd6"/></g></g></g></g></g></svg>