<svg xmlns="http://www.w3.org/2000/svg" viewBox="0 0 572 422">
  <defs>
    <style>.a,.g,.h{fill:none;}.a{stroke:#fff;}.a,.g,.h,.i{stroke-miterlimit:10;stroke-width:2px;}.b{fill:#2f2e41;}.c,.e{fill:#fff;}.c{opacity:0.451;}.d,.i{fill:#3f3d56;}.f{fill:#2fadd6;}.g,.i{stroke:#3f3d56;}.h{stroke:#2fadd6;}</style>
  </defs>
  <g transform="translate(0 -0.5)">
    <path class="a" d="M0,.5H73" transform="translate(198 129.5)"/>
    <ellipse class="b" cx="20.014" cy="6.288" rx="20.014" ry="6.288" transform="translate(91.876 225.045) rotate(-69.082)"/>
    <path class="c" d="M204.679,138.633c7.939,58.963-2.872,117.99-57.858,140.975A108.024,108.024,0,0,1,5.555,221.869C-17.477,167,36.867,134.163,63.414,80.894,117.323-27.278,180.025-44.474,204.679,138.633Z" transform="translate(365 101)"/>
    <ellipse class="d" cx="86" cy="11.5" rx="86" ry="11.5" transform="translate(385 372)"/>
    <rect class="b" width="12.166" height="21.81" transform="translate(417.405 365.871) rotate(-105.452)"/>
    <ellipse class="b" cx="3.803" cy="10.133" rx="3.803" ry="10.133" transform="translate(406.544 349.417) rotate(-15.452)"/>
    <ellipse class="b" cx="20.011" cy="6.289" rx="20.011" ry="6.289" transform="translate(465.358 331.981) rotate(-82.281)"/>
    <circle class="b" cx="40" cy="40" r="40" transform="translate(430 310)"/>
    <rect class="b" width="12.166" height="21.81" transform="translate(417.405 358.778) rotate(-105.452)"/>
    <ellipse class="b" cx="3.803" cy="10.133" rx="3.803" ry="10.133" transform="translate(406.544 342.325) rotate(-15.452)"/>
    <circle class="e" cx="13.5" cy="13.5" r="13.5" transform="translate(467 314)"/>
    <circle class="d" cx="4.5" cy="4.5" r="4.5" transform="translate(481 317)"/>
    <path class="f" d="M19.51,58.974c14.877-.738,26.27-14.531,25.449-30.808S31.41-.707,16.534.031-.678,12.345.144,28.621,4.633,59.712,19.51,58.974Z" transform="translate(497 319)"/>
    <path class="e" d="M9.676,17.97A9,9,0,0,1,8.231.028c4.93-.4,6.275,3.532,6.674,8.487S14.606,17.569,9.676,17.97Z" transform="translate(444 315)"/>
    <path class="a" d="M0,23.954H224.189l34.758,16.984L314.326,68,350.535,0H453" transform="translate(25 159.5)"/>
    <circle class="f" cx="7" cy="7" r="7" transform="translate(106 183.5)"/>
    <circle class="f" cx="7" cy="7" r="7" transform="translate(171 176.5)"/>
    <circle class="f" cx="7" cy="7" r="7" transform="translate(277 193.5)"/>
    <circle class="f" cx="7" cy="7" r="7" transform="translate(427 153.5)"/>
    <circle class="f" cx="7" cy="7" r="7" transform="translate(354 179.5)"/>
    <circle class="g" cx="7.5" cy="7.5" r="7.5" transform="translate(209 288.5)"/>
    <ellipse class="d" cx="86" cy="11.5" rx="86" ry="11.5" transform="translate(0 399.5)"/>
    <circle class="b" cx="40" cy="40" r="40" transform="translate(42 313.5)"/>
    <rect class="b" width="12" height="22" transform="translate(63 385.5)"/>
    <rect class="b" width="12" height="22" transform="translate(88 385.5)"/>
    <ellipse class="b" cx="10" cy="4" rx="10" ry="4" transform="translate(63 403.5)"/>
    <ellipse class="b" cx="10" cy="4" rx="10" ry="4" transform="translate(88 402.5)"/>
    <circle class="e" cx="13.5" cy="13.5" r="13.5" transform="translate(69 330.5)"/>
    <circle class="d" cx="4.5" cy="4.5" r="4.5" transform="translate(78 339.5)"/>
    <path class="f" d="M.591,33.449C-2.639,18.979,7.687,4.357,23.656.79S55.189,6.063,58.419,20.534,51.067,40.341,35.1,43.908,3.822,47.919.591,33.449Z" transform="translate(42 283.5)"/>
    <circle class="b" cx="40" cy="40" r="40" transform="translate(28 198.5)"/>
    <rect class="b" width="12" height="22" transform="translate(50 270.5)"/>
    <rect class="b" width="12" height="22" transform="translate(74 270.5)"/>
    <ellipse class="b" cx="10" cy="4" rx="10" ry="4" transform="translate(50 288.5)"/>
    <ellipse class="b" cx="10" cy="4" rx="10" ry="4" transform="translate(74 287.5)"/>
    <circle class="e" cx="13.5" cy="13.5" r="13.5" transform="translate(55 215.5)"/>
    <circle class="d" cx="4.5" cy="4.5" r="4.5" transform="translate(64 224.5)"/>
    <path class="f" d="M.591,33.449C-2.639,18.979,7.687,4.357,23.656.79S55.189,6.063,58.419,20.534,51.067,40.341,35.1,43.908,3.822,47.919.591,33.449Z" transform="translate(28 168.5)"/>
    <ellipse class="b" cx="6.283" cy="20.029" rx="6.283" ry="20.029" transform="translate(1.944 217.342) rotate(-64.626)"/>
    <path class="e" d="M0,5C0,9.035,10.095,17,21.3,17S43,5.644,43,1.61s-10.5.783-21.7.783S0,.967,0,5Z" transform="translate(48 248.5)"/>
    <rect class="f" width="64" height="33" transform="translate(430 267)"/>
    <rect class="g" width="64" height="33" transform="translate(425 273)"/>
    <rect class="e" width="18" height="18" transform="translate(115 101.5)"/>
    <rect class="h" width="18" height="18" transform="translate(110 95.5)"/>
    <circle class="b" cx="40" cy="40" r="40" transform="translate(420 56.5)"/>
    <rect class="b" width="12.176" height="21.787" transform="matrix(-0.984, 0.178, -0.178, -0.984, 486.972, 146.078)"/>
    <rect class="b" width="12.176" height="21.787" transform="translate(463.018 150.411) rotate(169.739)"/>
    <ellipse class="b" cx="10.139" cy="3.801" rx="10.139" ry="3.801" transform="matrix(0.763, -0.646, 0.646, 0.763, 444.747, 157.84)"/>
    <ellipse class="b" cx="10.139" cy="3.801" rx="10.139" ry="3.801" transform="matrix(0.763, -0.646, 0.646, 0.763, 468.203, 153.599)"/>
    <circle class="e" cx="13.5" cy="13.5" r="13.5" transform="translate(443 73.5)"/>
    <circle class="d" cx="4.5" cy="4.5" r="4.5" transform="translate(447 77.5)"/>
    <path class="f" d="M58.98,28.309C59.579,13.36,46.867.7,30.586.028S.622,10.933.023,25.882s10.718,18.346,27,19.016S58.381,43.258,58.98,28.309Z" transform="translate(432 25.5)"/>
    <ellipse class="b" cx="6.282" cy="20.032" rx="6.282" ry="20.032" transform="translate(401.596 91.343) rotate(-77.09)"/>
    <ellipse class="b" cx="6.282" cy="20.032" rx="6.282" ry="20.032" transform="translate(480.245 104.407) rotate(-77.09)"/>
    <path class="e" d="M17.856,4.6a8.728,8.728,0,0,1-3.042,8.307A9.152,9.152,0,0,1,5.95,14.481,8.878,8.878,0,0,1,.129,7.746c-.886-4.8,2.9-6.494,7.794-7.362S16.97-.195,17.856,4.6Z" transform="translate(453 108.5)"/>
    <path class="h" d="M0,0,46,35" transform="translate(361 51.5)"/>
    <circle class="e" cx="34.5" cy="34.5" r="34.5" transform="translate(305 0.5)"/>
    <ellipse class="b" cx="20.011" cy="6.289" rx="20.011" ry="6.289" transform="translate(450.32 341.491) rotate(-82.281)"/>
    <circle class="f" cx="7" cy="7" r="7" transform="translate(28 392.5)"/>
    <rect class="e" width="18" height="18" transform="translate(130 391.5)"/>
    <circle class="f" cx="7" cy="7" r="7" transform="translate(123 396.5)"/>
    <circle class="f" cx="7" cy="7" r="7" transform="translate(227 123.5)"/>
    <path class="i" d="M.5,38V0" transform="translate(391 343)"/>
    <circle class="d" cx="5.5" cy="5.5" r="5.5" transform="translate(386 337)"/>
    <path class="d" d="M16,15S15.256-1.794,0,.158" transform="translate(375 351)"/>
  </g>
</svg>