<svg id="logo-ballistix" data-name="logo-ballistix"
	xmlns="http://www.w3.org/2000/svg" viewBox="0 0 71.73 97.29">
	<g id="logo-ballistix" data-name="logo-ballistix">
		<path d="M0,43V0H43.29A25.9,25.9,0,0,1,61.67,7.61h0l.83-.05c1.7,0,3.47,0,5.24.1.58,0,1.08.1,1.35.51s.13.89-.07,1.44c-.68,1.84-1.44,3.59-2.25,5.26a25.35,25.35,0,0,1-7.52,30.91c-.31.24-.31.4,0,.63,7.51,5.07,12.44,13.05,12.44,22.73A28.29,28.29,0,0,1,43.31,97.29v-.06A29.78,29.78,0,0,1,13.38,67.61c0-10.23,4.61-19,12.57-24.28l.71-.47A1,1,0,0,0,27,41.48l0,0L20.77,32.7a1,1,0,0,0-1.35-.27L1.54,43.8a1,1,0,0,1-1.38-.31A1,1,0,0,1,0,43ZM54.45,65l-.36-1.09a.2.2,0,0,1,.07-.23L55.1,63a.2.2,0,0,0,0-.28.18.18,0,0,0-.16-.08H53.82a.2.2,0,0,1-.19-.14l-.36-1.1A.21.21,0,0,0,53,61.3a.21.21,0,0,0-.13.13l-.36,1.1a.2.2,0,0,1-.19.14H51.18a.2.2,0,0,0-.2.2.21.21,0,0,0,.08.16l.94.67a.2.2,0,0,1,.07.23L51.71,65a.21.21,0,0,0,.13.25.19.19,0,0,0,.18,0l.94-.68a.21.21,0,0,1,.24,0l.94.68a.2.2,0,0,0,.31-.22Zm-9.39,7.23-.62-1.91a.2.2,0,0,1,.07-.23l1.64-1.18a.21.21,0,0,0,.05-.28.21.21,0,0,0-.16-.08H44a.2.2,0,0,1-.19-.14l-.63-1.92a.19.19,0,0,0-.25-.13.21.21,0,0,0-.13.13l-.63,1.92a.21.21,0,0,1-.19.14h-2a.2.2,0,0,0-.2.2.21.21,0,0,0,.08.16l1.65,1.18a.2.2,0,0,1,.07.23l-.63,1.91a.21.21,0,0,0,.13.25.19.19,0,0,0,.18,0l1.65-1.18a.19.19,0,0,1,.23,0l1.66,1.19a.21.21,0,0,0,.28,0A.22.22,0,0,0,45.06,72.25Zm-13.55-28,2.2-1a1,1,0,0,1,1.25.35l3.77,5.59a1,1,0,0,0,1.38.27.92.92,0,0,0,.29-.3,13.79,13.79,0,0,0,2.25-9.08.56.56,0,0,1,.24-.53c7.87-5.53,17.36-13.39,23.26-26l0,0,0,0c.65-1.39,1.27-2.83,1.83-4.34h0a.32.32,0,0,0-.2-.41l-.08,0h0c-1.63-.11-5.08-.09-5.12-.09-13.1.45-23.45,6-32.69,11.85a.59.59,0,0,1-.59,0,13.71,13.71,0,0,0-6.58-1.66,14.38,14.38,0,0,0-2.8.3h0a1,1,0,0,0-.79,1.18,1.14,1.14,0,0,0,.16.38l3.43,4.9A1,1,0,0,1,22.57,27l-1.83,1.66A1,1,0,0,0,20.59,30l9.68,14A1,1,0,0,0,31.51,44.29ZM14.25,14.09a.2.2,0,0,1-.31.22l-1.65-1.19a.2.2,0,0,0-.23,0L10.4,14.31a.19.19,0,0,1-.18,0,.19.19,0,0,1-.12-.25l.63-1.92a.21.21,0,0,0-.08-.22L9,10.77a.21.21,0,0,1-.08-.17.2.2,0,0,1,.2-.2h2a.2.2,0,0,0,.19-.13L12,8.35a.21.21,0,0,1,.13-.13.2.2,0,0,1,.25.13L13,10.27a.21.21,0,0,0,.19.13h2a.19.19,0,0,1,.16.09.2.2,0,0,1,0,.28L13.69,12a.19.19,0,0,0-.07.22Zm36.66,1.79a3.53,3.53,0,0,1,1.47.31,3.63,3.63,0,0,1,2.16,3.31A3.57,3.57,0,0,1,54.22,21a3.62,3.62,0,0,1-3.31,2.15,3.51,3.51,0,0,1-1.46-.31,3.63,3.63,0,0,1-2.16-3.31A3.73,3.73,0,0,1,47.6,18,3.64,3.64,0,0,1,50.91,15.88Z" fill="#fff" fill-rule="evenodd"/>
	</g>
</svg>