<svg id="Layer_1" data-name="Layer 1" xmlns="http://www.w3.org/2000/svg" width="250" height="250" viewBox="0 0 250 250"><g id="Page-1"><g id="_1.110-Book-a-Dev_Wiz_Project_1" data-name="1.110-Book-a-Dev_Wiz_Project_1"><g id="Wizard"><g id="Group-8"><g id="C_" data-name="C++"><g id="icons8-rest_api" data-name="icons8-rest api"><path id="Shape" d="M108,2.5A10.7,10.7,0,0,0,97.54,11L95,23.47A105.65,105.65,0,0,0,51.6,48.27L40,44.28A10.67,10.67,0,0,0,27.47,49.1l-17,29.3a10.65,10.65,0,0,0,2.17,13.31L22,100a103.69,103.69,0,0,0-3.5,25A104.7,104.7,0,0,0,22,150l-9.32,8.32a10.68,10.68,0,0,0-2.17,13.31L27.3,200.9A10.73,10.73,0,0,0,40,205.72l11.65-4A105.78,105.78,0,0,0,95,226.53L97.54,239A10.72,10.72,0,0,0,108,247.5H142A10.71,10.71,0,0,0,152.47,239L155,226.53a105.59,105.59,0,0,0,43.44-24.8l11.65,4a10.68,10.68,0,0,0,12.49-4.82l17-29.3a10.68,10.68,0,0,0-2.16-13.31L228,150a105.2,105.2,0,0,0,3.49-25A105.2,105.2,0,0,0,228,100l9.32-8.32a10.68,10.68,0,0,0,2.16-13.31L222.7,49.1a10.72,10.72,0,0,0-12.65-4.82l-11.65,4A105.72,105.72,0,0,0,155,23.47L152.47,11A10.73,10.73,0,0,0,142,2.5Zm0,11h34l3.67,18.33,3.17.84A95.32,95.32,0,0,1,193.5,58.33l2.34,2.5,3.33-1.16,14.33-4.84,17,29.34L219,94.33l-2.5,2.17.84,3.17a93,93,0,0,1,0,51.66l-.84,3.17,2.5,2.17,11.5,10.16-17,29.34L199,191.33l-3.16-1.16-2.34,2.5a95.49,95.49,0,0,1-44.66,25.66l-3.17.84L142,237.5H108l-3.66-18.33-3.17-.84A95.4,95.4,0,0,1,56.5,192.67l-2.33-2.5-3.33,1.16L36.5,196.17l-17-29.34L31,156.67l2.5-2.17-.83-3.17a92.73,92.73,0,0,1,0-51.66l.83-3.17L31,94.33,19.5,84.17l17-29.34L51,59.67l3.17,1.16,2.33-2.5a95.57,95.57,0,0,1,44.67-25.66l3.17-.84Z" fill="#12021e" opacity="0.8" style="isolation:isolate"/><path id="Combined-Shape" d="M84.42,91.56l.19.56,18.28,59.39a5.65,5.65,0,0,1,.17,1.08l1,1.2v3.36a5.31,5.31,0,0,1-2.73,4.68,5.69,5.69,0,0,1-5.54,0,5.33,5.33,0,0,1-2.7-4.05l0-.63V155l-2.75-8.49H69.81L67.06,155v2.16a5.31,5.31,0,0,1-2.73,4.68,5.69,5.69,0,0,1-5.54,0,5.33,5.33,0,0,1-2.7-4.05l0-.63v-4a4.41,4.41,0,0,1,0-1.09l.11-.54L74.5,92.12a5.27,5.27,0,0,1,9.92-.56Zm56.51-4.06A16.16,16.16,0,0,1,157,102.6l0,.9v16a16.14,16.14,0,0,1-15.22,16l-.91,0H125.06v21.3a5.34,5.34,0,0,1-2.73,4.69,5.74,5.74,0,0,1-5.54,0,5.33,5.33,0,0,1-2.7-4.05l0-.64V131.33a5.35,5.35,0,0,1-.1-1.44l.1-.72V92.83a5.34,5.34,0,0,1,3.79-5.19l.58-.14ZM178,87.33a5.35,5.35,0,0,1,1.55.17h4.47a5.57,5.57,0,0,1,4.83,2.65,5.23,5.23,0,0,1,0,5.37,5.57,5.57,0,0,1-4.83,2.65V151.5a5.5,5.5,0,1,1,0,11h-11a5.51,5.51,0,0,1-.52-11h.52V98.17a5.34,5.34,0,1,1-.52-10.67h4.81C177.57,87.44,177.81,87.37,178,87.33ZM79.73,111.2l-7.49,24.3h15Zm61-12.7H125.06v27h15.75a5.21,5.21,0,0,0,5.22-4.8l0-.6V103.83A5.33,5.33,0,0,0,140.73,98.5Z" fill="#2fadd6"/></g></g></g></g></g></g></svg>