<svg id="Layer_1" data-name="Layer 1" xmlns="http://www.w3.org/2000/svg" width="250" height="250" viewBox="0 0 250 250"><g id="Page-1"><g id="_1.110-Book-a-Dev_Wiz_Project_1" data-name="1.110-Book-a-Dev_Wiz_Project_1"><g id="Wizard"><g id="Group-8"><g id="NodeJS"><g id="icons8-smartphone_tablet" data-name="icons8-smartphone tablet"><path id="Shape" d="M20,2.5a20.06,20.06,0,0,0-20,20v190a20.06,20.06,0,0,0,20,20H125v-10H20a10,10,0,0,1-10-10V22.5a10,10,0,0,1,10-10H160a10,10,0,0,1,10,10v45h10v-45a20.06,20.06,0,0,0-20-20Zm110,85v145a15,15,0,0,0,15,15h90a15,15,0,0,0,15-15V87.5a15,15,0,0,0-15-15H145A15,15,0,0,0,130,87.5Zm15-5h90a5,5,0,0,1,5,5v145a5,5,0,0,1-5,5H145a5,5,0,0,1-5-5V87.5A5,5,0,0,1,145,82.5Zm9.06,10a5,5,0,0,0-4.06,5v110a5,5,0,0,0,5,5h70a5,5,0,0,0,5-5V97.5a5,5,0,0,0-5-5H154.06ZM90,202a7.5,7.5,0,1,1-7.5,7.5A7.5,7.5,0,0,1,90,202Zm130-99.5v100H160v-100Z" fill="#12021e" opacity="0.8" style="isolation:isolate"/><path id="Path" d="M24.06,22.5a5,5,0,0,0-4.06,5v165a5,5,0,0,0,5,5H125v-10H30V32.5H150v35h10v-40a5,5,0,0,0-5-5H24.06Z" fill="#2fadd6"/><path id="Combined-Shape" d="M190,217a7.5,7.5,0,1,0,7.5,7.5A7.5,7.5,0,0,0,190,217Z" fill="#2fadd6"/></g></g></g></g></g></g></svg>