<svg id="Layer_1" data-name="Layer 1" xmlns="http://www.w3.org/2000/svg" width="250" height="250" viewBox="0 0 250 250"><g id="Page-1"><g id="_1.110-Book-a-Dev_Wiz_Project_1" data-name="1.110-Book-a-Dev_Wiz_Project_1"><g id="Wizard"><g id="Group-8"><g id="Php"><g id="icons8-web"><path id="Shape" d="M15.46,21.5A15.68,15.68,0,0,0,0,37.25v185.8a5.45,5.45,0,0,0,5.43,5.45H244.57a5.45,5.45,0,0,0,5.43-5.45V37.25A15.68,15.68,0,0,0,234.54,21.5Zm219,11A4.63,4.63,0,0,1,239,37.31V86.5H11V37.31a4.63,4.63,0,0,1,4.58-4.81ZM65.22,48.67A10.87,10.87,0,1,0,76.09,59.54,10.87,10.87,0,0,0,65.22,48.67ZM103,54.5H212v11H103Zm-92,43H239v120H11Zm16,16v38H147v-38Zm11,11h98v16H38Zm-11,38v38H147v-38Zm11,11h98v16H38Z" fill="#12021e" opacity="0.8" style="isolation:isolate"/><path id="Combined-Shape" d="M223,113.5v87H163v-87Zm-11,11H174v65h38ZM32.61,48.67A10.87,10.87,0,1,1,21.74,59.54,10.87,10.87,0,0,1,32.61,48.67Z" fill="#2fadd6"/></g></g></g></g></g></g></svg>