<svg id="Layer_1" data-name="Layer 1" xmlns="http://www.w3.org/2000/svg" width="250" height="250" viewBox="0 0 250 250"><g id="Page-1"><g id="_1.010-Book-a-Dev_Wiz_Team_1" data-name="1.010-Book-a-Dev_Wiz_Team_1"><g id="Wizard"><g id="Group-8"><g id="Angular"><g id="Group-11"><path id="Shape" d="M124.8,2.4a4.9,4.9,0,0,0-1.82.3L16.12,41.5a5.35,5.35,0,0,0-3.39,5.68L29.61,191.66a5.37,5.37,0,0,0,2.64,4l90.08,51.09a4.93,4.93,0,0,0,4.89,0L217.77,195a5.37,5.37,0,0,0,2.62-4L237.27,46.5a5.37,5.37,0,0,0-3.42-5.7L126.3,2.69A4.87,4.87,0,0,0,124.8,2.4Zm-.12,11L226.63,49.5,210.56,187,124.76,236l-85.32-48.4L23.36,50.16Z" fill="#12021e" fill-opacity="0.8"/><path id="Combined-Shape" d="M125.18,27.16a5,5,0,0,1,4.07,2.46l.3.57L194.78,176.8a5.46,5.46,0,0,1-.32,5,5,5,0,0,1-3.59,2.37l-.64.05H168a5,5,0,0,1-4.24-2.44l-.31-.59-12.61-28.35H99.2L86.58,181.22a5,5,0,0,1-3.9,3l-.65.05H59.77a5,5,0,0,1-4.23-2.42,5.43,5.43,0,0,1-.55-4.41l.23-.62L120.45,30.19A5,5,0,0,1,125.18,27.16ZM125,43.23l-57.37,129H78.82l12.62-28.35a5,5,0,0,1,3.91-3l.64,0h58a5,5,0,0,1,4.24,2.44l.31.59,12.61,28.35h11.2Zm.2,31.93a5.07,5.07,0,0,1,4.14,2.51l.3.59,20,45.34a5.54,5.54,0,0,1-.34,5.1,5.12,5.12,0,0,1-3.65,2.41l-.65,0H105a5.08,5.08,0,0,1-4.3-2.45,5.53,5.53,0,0,1-.57-4.47l.23-.63,20-45.34A5.08,5.08,0,0,1,125.2,75.16ZM125,91.78l-12.06,27.3h24.12Z" fill="#2fadd6"/></g></g></g></g></g></g></svg>