<svg id="Layer_1" data-name="Layer 1" xmlns="http://www.w3.org/2000/svg" width="250" height="250" viewBox="0 0 250 250"><g id="Page-1"><g id="_1.010-Book-a-Dev_Wiz_Team_1" data-name="1.010-Book-a-Dev_Wiz_Team_1"><g id="Wizard"><g id="Group-8"><g id="C_" data-name="C#"><g id="icons8-c_sharp_logo" data-name="icons8-c sharp logo"><path id="Shape" d="M125,2.33A22.46,22.46,0,0,0,114,5.2L24.15,55.68A21.7,21.7,0,0,0,13,74.51v101a21.74,21.74,0,0,0,11.15,18.86L114,244.78a22.42,22.42,0,0,0,22,0l89.83-50.45A21.72,21.72,0,0,0,237,175.47v-101a21.7,21.7,0,0,0-11.15-18.83L136,5.2A22.46,22.46,0,0,0,125,2.33ZM125,12a12.09,12.09,0,0,1,5.87,1.52l90.65,50.94a11.08,11.08,0,0,1,5.74,9.63V175.93a11.06,11.06,0,0,1-5.76,9.63L130.87,236.5a12.13,12.13,0,0,1-11.74,0L28.5,185.56a11,11,0,0,1-5.76-9.63V74.05a11.06,11.06,0,0,1,5.76-9.63l90.63-50.94A12.09,12.09,0,0,1,125,12Zm1.14,43.39a69.64,69.64,0,1,0,55.39,111.76l3.66-4.83-32.43-18.79-2.93,3.18a32.14,32.14,0,1,1,0-43.36l2.93,3.18L185.19,87.7l-3.66-4.83A69.35,69.35,0,0,0,126.14,55.35Zm0,10.72A58.14,58.14,0,0,1,168.7,84.88L154,93.37c-7.74-6.78-17.37-11.23-27.87-11.23a42.85,42.85,0,0,0,0,85.7c10.5,0,20.13-4.45,27.87-11.23l14.69,8.49a58.14,58.14,0,0,1-42.56,18.81,58.92,58.92,0,0,1,0-117.84Z" fill="#12021e" opacity="0.8" style="isolation:isolate"/><path id="Combined-Shape" d="M190.74,97.58v9.74h9.74V97.58h9.74v12.18h12.17v9.73H210.22v12.18h12.17v9.74H210.22v9.74h-9.74v-9.74h-9.74v9.74H181v-9.74H168.83v-9.74H181V119.49H168.83V107.32H181V97.58Zm9.74,21.91h-9.74v9.74h9.74Z" fill="#2fadd6"/></g></g></g></g></g></g></svg>