<svg id="Layer_1" data-name="Layer 1" xmlns="http://www.w3.org/2000/svg" width="250" height="250" viewBox="0 0 250 250"><g id="Page-1"><g id="_1.010-Book-a-Dev_Wiz_Team_1" data-name="1.010-Book-a-Dev_Wiz_Team_1"><g id="Wizard"><g id="Group-8"><g id="Java"><g id="icons8-java"><path id="Shape" d="M96.51,125.79s-49.62-.71-49.62,13.32c0,14.66,65,15.76,111.34,6.74,0,0,12.33-8.48,15.62-11.64-30.4,6.2-99.7,6.89-99.7,1.53C74.15,130.8,96.51,125.79,96.51,125.79Zm95.42,0a29.8,29.8,0,0,0-14.86,5.66c11.18-2.41,20.68,4.52,20.68,12.41,0,17.76-25.73,34.46-25.73,34.46s39.82-4.52,39.82-33.7C211.84,131.38,202.63,124.94,191.93,125.79ZM84.57,153.05c-7.62,0-19,6-19,11.64,0,11.39,57.28,20.15,99.7,3.52l-14.7-9C121.82,168.38,68.87,165.38,84.57,153.05Zm7,25.57c-10.43,0-17.3,6.3-17.3,11,0,14.63,62.31,16.1,87,1.22l-15.62-10C127.24,188.71,81,189.9,91.61,178.62ZM56.85,191.79c-17-.34-28,7.3-28,13.63,0,33.7,174,32.15,174-2.29,0-5.73-6.6-8.5-9-9.81C208,226.25,51.33,223.63,51.33,204.2c0-4.42,11.53-8.65,22.21-6.59l-9-5.2A59.77,59.77,0,0,0,56.85,191.79Zm164.33,22.67c-26.46,25.08-93.5,34.17-161,18.68C127.66,260.75,220.85,245.26,221.18,214.46Z" fill="#12021e" opacity="0.8" style="isolation:isolate"/><path id="Path" d="M140.62,2.5C154.1,33.69,92.3,52.94,86.56,78.92c-5.27,23.87,36.72,51.61,36.76,51.61a184.93,184.93,0,0,1-17.46-33.38C95,71.15,171.73,47.62,140.62,2.5Z" fill="#2fadd6"/><path id="Path-2" data-name="Path" d="M181.67,45.69s-54.22,3.48-57,38.13c-1.22,15.43,14.27,23.55,14.71,34.77.36,9.17-9.19,16.84-9.19,16.84s17.38-3.31,22.82-17.3c6-15.53-11.76-26-10-38.44C144.79,67.8,181.67,45.69,181.67,45.69Z" fill="#2fadd6"/></g></g></g></g></g></g></svg>