<svg id="Layer_1" data-name="Layer 1" xmlns="http://www.w3.org/2000/svg" width="250" height="250" viewBox="0 0 250 250"><path id="Combined-Shape" d="M47.82,78.53,95.1,147c1.88,2.72,3.17,4.67,3.82,5.84h.26A85.11,85.11,0,0,1,98.52,140V78.53h9.29v92.94H95.24L47.92,97.61C46.81,95.85,43.81,94,43,97.12a55.46,55.46,0,0,0-.25,7.3v67.05H33.46V78.53Zm125.05,0v9.29H135.69v27.89h37.18V125H135.69v37.18h37.18v9.29H126.4V78.53Zm74.35,0v9.29H219.34v83.65h-9.29V87.82H182.16V78.53Z" fill="#12021e" fill-rule="evenodd" opacity="0.8" style="isolation:isolate"/><path id="Path" d="M16.84,163.45a6.72,6.72,0,0,1-2.08,5,6.91,6.91,0,0,1-5,2.08,6.63,6.63,0,0,1-4.92-2.08,7.14,7.14,0,0,1,0-9.93,6.64,6.64,0,0,1,4.92-2.05,6.87,6.87,0,0,1,5,2.08,6.72,6.72,0,0,1,2.08,4.95" fill="#2fadd6" fill-rule="evenodd"/></svg>