<svg id="Layer_1" data-name="Layer 1" xmlns="http://www.w3.org/2000/svg" width="250" height="250" viewBox="0 0 250 250"><path id="Path" d="M125.4,5.41a119.62,119.62,0,1,0,84.44,35.32A119.21,119.21,0,0,0,125.4,5.41Z" fill="none" stroke="#12021e" stroke-width="7" opacity="0.8" style="isolation:isolate"/><path id="Shape" d="M123.44,166.91a14.16,14.16,0,0,0-10.56,4.14,14.61,14.61,0,0,0,10.48,25.2A14.25,14.25,0,0,0,134,192.16a14.74,14.74,0,0,0-10.57-25.25Zm31.41-95.47q-10.46-9.16-29.39-9.22-18.78-.06-29.68,9.52c-6.87,6-10.54,14.37-11,24.86H83.48l0,6.77,27.07.09.06-5.06c.13-4.74,1.54-8.47,4.2-11.16s6.19-4,10.6-4q14,0,13.88,15.11a18.06,18.06,0,0,1-2.7,9.47q-2.69,4.47-10.81,11.62t-11.17,14.51c-2.06,4.91-3.1,12-3.13,20.3l22.9.08.38-5.89a24.3,24.3,0,0,1,7.83-15.19l7.29-6.83c5.65-5.44,9.65-10.39,11.92-14.86a31.09,31.09,0,0,0,3.46-14.28Q165.26,80.6,154.85,71.44Z" fill="#2fadd6" stroke="#fff" stroke-width="0.5"/></svg>