<svg id="Layer_1" data-name="Layer 1" xmlns="http://www.w3.org/2000/svg" width="250" height="250" viewBox="0 0 250 250"><g id="Page-1"><g id="_1.010-Book-a-Dev_Wiz_Team_1" data-name="1.010-Book-a-Dev_Wiz_Team_1"><g id="Wizard"><g id="Group-8"><g id="NodeJS"><g id="icons8-nodejs"><path id="Shape" d="M173.78,46.94a2.21,2.21,0,0,0-2.21,2.21V90.46l-10.39-6a4.21,4.21,0,0,0-4.23,0L132,99a4.2,4.2,0,0,0-2.1,3.63v28.14a4,4,0,0,0,2,3.51L156,148.3a4.08,4.08,0,0,0,4.09,0l24.12-14.06a4,4,0,0,0,2-3.51V56a3.67,3.67,0,0,0-1.82-3.17l-9.58-5.57A2.11,2.11,0,0,0,173.78,46.94Zm48,37.21a4,4,0,0,0-2,.55L195.66,98.77a4,4,0,0,0-2,3.5v28.06a4.3,4.3,0,0,0,2.16,3.74l24.91,15.06a4.27,4.27,0,0,0,4.38,0l12.24-7.12a1.92,1.92,0,0,0,0-3.32L210.78,123.1V109.31L223,102.18l12.25,7.13v9.74a1.09,1.09,0,0,0,1.73,1c2.78-1.63,11.16-6.49,11.16-6.49a3.67,3.67,0,0,0,1.82-3.17v-8.12a4,4,0,0,0-2-3.5L223.86,84.7A4.07,4.07,0,0,0,221.81,84.15Zm-193.62,0a4,4,0,0,0-2.05.55L2,98.76a4.12,4.12,0,0,0-2,3.54v36.6a2.29,2.29,0,0,0,3.44,2L15,134.13a4.31,4.31,0,0,0,2.13-3.7V109l11-6.44,11,6.44v21.44a4.3,4.3,0,0,0,2.12,3.7l11.6,6.75a2.28,2.28,0,0,0,3.43-2v-36.6a4.11,4.11,0,0,0-2-3.55l-24.1-14A4,4,0,0,0,28.19,84.17Zm128.67,17.92,12.26,7.15v14.52l-12.26,7.15-12.25-7.15V109.24ZM223,108l-7.35,4.29v8.56l7.35,4.27,7.35-4.27v-8.56Zm-99.25,32.66a5,5,0,0,0-2.46.63L98.05,154.7a4.85,4.85,0,0,0-2.46,4.24v25.75a4.81,4.81,0,0,0,2.6,4.15l6.49,3.42c3.12,1.42,4.26,1.43,5.67,1.43,4.65,0,7.3-2.57,7.3-7.11v-26a.7.7,0,0,0-.72-.68h-3.49a.68.68,0,0,0-.69.68v26c0,2-2.12,4-5.57,2.29l-6.34-3.59a.71.71,0,0,1-.35-.61v-26a.69.69,0,0,1,.35-.62l22.57-13a.74.74,0,0,1,.71,0l22.59,13a.65.65,0,0,1,.35.62v26.39s1.13.51.93.63l-22.81,13.19a.75.75,0,0,1-.71,0l-5.83-3.47a.69.69,0,0,0-.56-.05,13.52,13.52,0,0,1-3.43,1.59c-.4.12-.94.36.2,1l7.57,4.5a5.19,5.19,0,0,0,2.41.63,4.37,4.37,0,0,0,2.37-.66L150,189.21c1.5-.83,2-4.15,2-4.15V158.94a5,5,0,0,0-2.46-4.24l-23.28-13.45A4.79,4.79,0,0,0,123.79,140.62ZM160.39,153a4.38,4.38,0,1,0,4.37,4.37A4.32,4.32,0,0,0,160.39,153Zm0,.7a3.68,3.68,0,0,1,3.72,3.67,3.79,3.79,0,0,1-3.72,3.72,3.7,3.7,0,0,1,0-7.39ZM156.86,155v4.9h2.45v-2.45h1.24a1.52,1.52,0,0,1,.52.77s.19,1.68.19,1.68h-.89a5.39,5.39,0,0,1-.24-1.31c-.11-.62-.15-1.06-.82-1.1a1.15,1.15,0,0,0,.95-1.21c0-1.29-1.13-1.28-1.72-1.28Zm2.45,0h1.16c.24.63.71.62.71,1.29a1.43,1.43,0,0,1-.76,1.16h-1.11ZM131,158.75c-6.38,0-10.16,2.72-10.16,7.2,0,4.91,3.79,6.22,9.9,6.84,7.31.73,7.88,1.78,7.88,3.21,0,2.51-2,3.55-6.73,3.55-5.92,0-7.22-1.46-7.65-4.4a.66.66,0,0,0-.67-.55h-2.9a.65.65,0,0,0-.65.67c0,3.75,2,8.24,11.82,8.24,7.17,0,11.23-2.79,11.23-7.67s-3.25-6.11-10.13-7-7.65-1.39-7.65-3c0-1.35.57-3.12,5.71-3.12,4.59,0,6.31,1,7,4.07a.66.66,0,0,0,.62.52h2.89a.65.65,0,0,0,.47-.19.59.59,0,0,0,.15-.49C141.63,161.23,138.11,158.75,131,158.75Z" fill="#12021e" opacity="0.8" style="isolation:isolate"/><path id="Path" d="M94.36,84.31a4,4,0,0,0-2,.55L68.21,98.92a4,4,0,0,0-2,3.51v28.15a4,4,0,0,0,2,3.51l24.11,14.06a4.09,4.09,0,0,0,4.09,0l24.11-14.06a4.06,4.06,0,0,0,2-3.51V102.43a4,4,0,0,0-2-3.51L96.41,84.86A4,4,0,0,0,94.36,84.31Z" fill="#2fadd6"/></g></g></g></g></g></g></svg>