<svg id="Layer_1" data-name="Layer 1" xmlns="http://www.w3.org/2000/svg" width="250" height="250" viewBox="0 0 250 250"><g id="Page-1"><g id="_1.010-Book-a-Dev_Wiz_Team_1" data-name="1.010-Book-a-Dev_Wiz_Team_1"><g id="Wizard"><g id="Group-8"><g id="Php"><g id="icons8-php_logo" data-name="icons8-php logo"><path id="Shape" d="M125,56.82c-33.81,0-64.47,7.13-87.12,19S0,104.9,0,125s15.24,37.25,37.88,49.15,53.31,19,87.12,19,64.47-7.13,87.12-19S250,145.1,250,125s-15.24-37.25-37.88-49.15S158.81,56.82,125,56.82Zm0,7.57c33.15,0,63.11,7.07,84.34,18.16s33.08,25.63,33.08,40.56-11.86,33.27-33.08,44.34S158.15,185.61,125,185.61s-63.11-7.07-84.34-18.16S7.58,138,7.58,123.11,19.44,93.62,40.66,82.55,91.85,64.39,125,64.39Z" fill="#12021e" opacity="0.8" style="isolation:isolate"/><path id="Path" d="M111.84,82.67l-13,62.08h13.85l6.55-31h10.85c3.45,0,5.76.57,6.83,1.72s1.27,3.33.66,6.46l-5,22.86h14.11l5.49-25.28c1.18-6,.29-10.49-2.64-13.2s-8.27-3.85-16.12-3.85H121.44l4.11-19.75Z" fill="#2fadd6"/><path id="Combined-Shape" d="M79.5,102.42c13.46,0,21.6,9,18.42,22.47-3.7,15.64-13.62,19.86-31.85,19.86H57.35l-3,16.92H40.8l10.92-59.25Zm-5.32,11.29H64l-3.74,19.75h9.06c7.06-.05,13.52-1.12,14.63-11.73.44-4.22-1.33-8-9.78-8Z" fill="#2fadd6"/><path id="Combined-Shape-2" data-name="Combined-Shape" d="M189.64,102.42c13.46,0,21.6,9,18.42,22.47-3.7,15.64-13.62,19.86-31.85,19.86h-8.72l-3,16.92H150.94l10.92-59.25Zm-5.32,11.29H174.15l-3.74,19.75h9.06c7.06-.05,13.52-1.12,14.63-11.73.44-4.22-1.33-8-9.78-8Z" fill="#2fadd6"/></g></g></g></g></g></g></svg>