<svg id="Layer_1" data-name="Layer 1" xmlns="http://www.w3.org/2000/svg" width="250" height="250" viewBox="0 0 250 250"><g id="Page-1"><g id="_1.030-Book-a-Dev_Wiz_Project_3" data-name="1.030-Book-a-Dev_Wiz_Project_3"><g id="Group-32"><g id="Group-30"><g id="Group-24"><g id="icons8-tetris-copy"><path id="Shape" d="M0,94.4V249H250V94.4H190.87v47.72H142.12v47.71H106.85V142.12H59.13V94.4Zm12.45,11.41H47.72v35.27H12.45Zm189.83,0h35.27v35.27H202.28ZM12.45,153.53H47.72V188.8H12.45Zm47.72,0H95.44V188.8H60.17Zm94.39,0h35.27V188.8H154.56Zm47.72,0h35.27V188.8H202.28ZM12.45,201.24H47.72v35.27H12.45Zm47.72,0H95.44v35.27H60.17Zm46.68,0h35.27v35.27H106.85Zm47.71,0h35.27v35.27H154.56Zm47.72,0h35.27v35.27H202.28Z" fill="#12021e" opacity="0.8" style="isolation:isolate"/><path id="Combined-Shape" d="M202.28,1V60.17H154.56v47.71H95.44V60.17H47.72V1ZM142.12,60.17H106.85V95.44h35.27ZM95.44,12.45H60.17V47.72H95.44Zm46.68,0H106.85V47.72h35.27Zm47.71,0H154.56V47.72h35.27Z" fill="#2fadd6"/></g></g></g></g></g></g></svg>