<svg id="Layer_1" data-name="Layer 1" xmlns="http://www.w3.org/2000/svg" width="250" height="250" viewBox="0 0 250 250"><g id="Page-1"><g id="_1.030-Book-a-Dev_Wiz_Project_3" data-name="1.030-Book-a-Dev_Wiz_Project_3"><g id="Group-32"><g id="Group-30"><g id="Group-23"><g id="Group-21"><path id="Shape-Copy-3" d="M1,191v59H249V144H190v47Zm201-35h35v35H202ZM13,203H48v35H13Zm47,0H95v35H60Zm47,0h35v35H107Zm48,0h35v35H155Zm47,0h35v35H202Z" fill="#12021e" opacity="0.8" style="isolation:isolate"/><path id="Combined-Shape" d="M1,62H60v47h47v59H1Zm59,59v35H95V121Zm-47,0v35H48V121Zm0-47v35H48V74Z" fill="#2fadd6"/></g></g></g></g></g></g></svg>