<svg xmlns="http://www.w3.org/2000/svg" viewBox="0 0 752 651">
  <g id="b82ffadf-cd82-44b9-9c6d-e262570a0ac0">
    <ellipse cx="359" cy="558" rx="359" ry="93" fill="#f2f2f2"/>
    <circle cx="495.6" cy="173.29" r="61.19" fill="#6c63ff"/>
    <circle cx="391.6" cy="317.29" r="61.19" fill="#6c63ff"/>
    <ellipse cx="392" cy="539" rx="359" ry="93" fill="none" stroke="#3f3d56" stroke-miterlimit="10" stroke-width="2"/>
    <circle cx="124.8" cy="429.5" r="79" fill="#2f2e41"/>
    <rect x="88.8" y="491.5" width="24" height="43" fill="#2f2e41"/>
    <rect x="136.8" y="491.5" width="24" height="43" fill="#2f2e41"/>
    <ellipse cx="108.8" cy="535" rx="20" ry="7.5" fill="#2f2e41"/>
    <ellipse cx="156.8" cy="534" rx="20" ry="7.5" fill="#2f2e41"/>
    <circle cx="126.8" cy="409.5" r="27" fill="#fff"/>
    <circle cx="126.8" cy="409.5" r="9" fill="#3f3d56"/>
    <path d="M48.17,356c-6.38-28.57,14-57.43,45.55-64.47s62.26,10.41,68.64,39-14.52,39.1-46.05,46.14S54.55,384.6,48.17,356Z" fill="#6c63ff"/>
    <ellipse cx="194.02" cy="402.34" rx="39.5" ry="12.4" transform="translate(-142.66 108.8) rotate(-23.17)" fill="#2f2e41"/>
    <ellipse cx="46.02" cy="455.34" rx="39.5" ry="12.4" transform="translate(-175.46 54.84) rotate(-23.17)" fill="#2f2e41"/>
    <path d="M170.8,452.5c0,7.73-19.9,23-42,23s-43-14.27-43-22,20.91-6,43-6S170.8,444.77,170.8,452.5Z" fill="#fff"/>
    <circle cx="274.6" cy="432.29" r="61.19" fill="#6c63ff"/>
    <line x1="274.55" y1="542.94" x2="274.55" y2="431.95" fill="none" stroke="#3f3d56" stroke-miterlimit="10" stroke-width="2"/>
    <circle cx="274.55" cy="431.95" r="15.7" fill="#3f3d56"/>
    <path d="M274.55,500.35s-2.24-48.22-48.21-42.62" fill="#3f3d56"/>
    <line x1="495.64" y1="543.72" x2="495.64" y2="173.51" fill="none" stroke="#3f3d56" stroke-miterlimit="10" stroke-width="2"/>
    <circle cx="495.64" cy="173.33" r="15.7" fill="#3f3d56"/>
    <circle cx="447.43" cy="441.18" r="15.7" fill="#3f3d56"/>
    <path d="M495.64,253.51s-2.24-48.23-48.21-42.62" fill="#3f3d56"/>
    <path d="M495.64,390.22S493.4,342,447.43,347.6" fill="#3f3d56"/>
    <path d="M495.64,539.4s10.09-93.74-48.21-98.22" fill="none" stroke="#3f3d56" stroke-miterlimit="10" stroke-width="2"/>
    <circle cx="543.86" cy="441.18" r="15.7" fill="#3f3d56"/>
    <path d="M495.65,539.4s-10.09-93.74,48.21-98.22" fill="none" stroke="#3f3d56" stroke-miterlimit="10" stroke-width="2"/>
    <circle cx="544.81" cy="293.95" r="15.7" fill="#3f3d56"/>
    <path d="M496.6,387.17S486.51,298.44,544.81,294" fill="none" stroke="#3f3d56" stroke-miterlimit="10" stroke-width="2"/>
    <line x1="391.66" y1="543.19" x2="391.66" y2="317.22" fill="none" stroke="#3f3d56" stroke-miterlimit="10" stroke-width="2"/>
    <circle cx="391.66" cy="317.22" r="15.7" fill="#3f3d56"/>
    <path d="M391.66,381.14s-2.24-48.23-48.21-42.62" fill="#3f3d56"/>
    <path d="M391.66,538.88s10.09-92.74-48.21-97.22" fill="none" stroke="#3f3d56" stroke-miterlimit="10" stroke-width="2"/>
    <circle cx="343.45" cy="441.66" r="15.7" fill="#3f3d56"/>
    <line x1="218.51" y1="542.98" x2="542.51" y2="542.98" fill="none" stroke="#3f3d56" stroke-miterlimit="10" stroke-width="2"/>
    <circle cx="661" cy="351" r="32" fill="#f2f2f2"/>
    <circle cx="157" cy="151" r="32" fill="#f2f2f2"/>
    <circle cx="480" cy="32" r="32" fill="#f2f2f2"/>
  </g>
  <g id="b6a0220b-322a-435e-9212-1568a8115194">
    <rect width="751" height="650.22" fill="#fff" opacity="0"/>
  </g>
</svg>