<svg xmlns="http://www.w3.org/2000/svg" viewBox="0 0 752 651">
  <g id="aa03ddf9-f8f2-4819-a4ce-be9b0a220741">
    <circle cx="196.68" cy="323.88" r="143.03" fill="#f2f2f2"/>
    <path d="M.2,215.19c0,52,32.65,94.15,73,94.15" fill="#2f2e41"/>
    <path d="M73.19,309.34c0-52.62,36.43-95.2,81.46-95.2" fill="#6c63ff"/>
    <path d="M26.65,219.91c0,49.43,20.81,89.43,46.54,89.43" fill="#6c63ff"/>
    <path d="M73.19,309.34c0-67.24,42.11-121.65,94.15-121.65" fill="#2f2e41"/>
    <path d="M57.84,310s10.35-.32,13.47-2.54,15.92-4.88,16.69-1.32,15.56,17.72,3.87,17.82-27.15-1.82-30.26-3.72S57.84,310,57.84,310Z" fill="#a8a8a8"/>
    <path d="M92.08,322.73c-11.68.09-27.15-1.82-30.27-3.72-2.37-1.44-3.31-6.63-3.63-9l-.34,0s.65,8.34,3.77,10.24,18.58,3.81,30.26,3.72c3.38,0,4.54-1.23,4.48-3C95.88,322,94.59,322.71,92.08,322.73Z" opacity="0.2" style="isolation:isolate"/>
    <ellipse cx="133.56" cy="465.9" rx="125.57" ry="17.08" fill="#3f3d56"/>
    <ellipse cx="133.56" cy="465.9" rx="105.42" ry="14.34" opacity="0.1" style="isolation:isolate"/>
    <ellipse cx="561.97" cy="624.37" rx="190.03" ry="25.85" fill="#3f3d56"/>
    <ellipse cx="208.77" cy="614.3" rx="114.15" ry="15.53" fill="#3f3d56"/>
    <path d="M310.84,601.2c60.43,15.45,176.6-20.14,189.35-60.43" fill="none" stroke="#2f2e41" stroke-miterlimit="10" stroke-width="2"/>
    <path d="M208.1,354.77s87.29-24.18,92.66,53.72S228.91,508.54,289.35,524" fill="none" stroke="#2f2e41" stroke-miterlimit="10" stroke-width="2"/>
    <path d="M123.76,541.63s26.24-7.27,27.85,16.15-21.59,30.07-3.43,34.71" fill="none" stroke="#2f2e41" stroke-miterlimit="10" stroke-width="2"/>
    <path d="M523.09,559.06l-5.29,33.77s-26,13.84-7.73,14.24,104.57,0,104.57,0,16.68,0-9.77-14.65L599.58,557Z" fill="#2f2e41"/>
    <path d="M506.38,606.71c4.16-3.7,11.42-7.56,11.42-7.56l5.29-33.77,76.49.07,5.29,33.29c6.17,3.42,10,6,12.23,8,3.39-.78,7.11-3.66-12.23-14.37L599.58,557l-76.49,2-5.29,33.77S495.92,604.46,506.38,606.71Z" opacity="0.1" style="isolation:isolate"/>
    <rect x="388.61" y="323.67" width="344.64" height="240.07" rx="12.12" fill="#2f2e41"/>
    <rect x="400.21" y="336.49" width="321.45" height="179.85" fill="#3f3d56"/>
    <circle cx="560.93" cy="330.79" r="2.03" fill="#f2f2f2"/>
    <path d="M733.25,530.58v21a12.12,12.12,0,0,1-12.11,12.12H400.73a12.12,12.12,0,0,1-12.12-12.12h0v-21Z" fill="#2f2e41"/>
    <polygon points="650.85 629.05 650.85 633.12 431.94 633.12 431.94 629.86 432.25 629.05 437.64 614.4 646.38 614.4 650.85 629.05" fill="#2f2e41"/>
    <path d="M735.1,625.06c-.4,1.71-1.91,3.51-5.31,5.21-12.21,6.1-37-1.63-37-1.63s-19.12-3.26-19.12-11.8a15.82,15.82,0,0,1,1.68-1c5.13-2.71,22.14-9.41,52.32.29a12.52,12.52,0,0,1,5.73,3.75C734.59,621.32,735.55,623.13,735.1,625.06Z" fill="#2f2e41"/>
    <path d="M735.1,625.06c-14.94,5.73-28.26,6.15-41.93-3.34-6.89-4.78-13.15-6-17.85-5.88,5.13-2.71,22.14-9.41,52.32.29a12.52,12.52,0,0,1,5.73,3.75C734.59,621.32,735.55,623.13,735.1,625.06Z" opacity="0.1" style="isolation:isolate"/>
    <ellipse cx="716.36" cy="620.09" rx="5.29" ry="1.63" fill="#f2f2f2"/>
    <circle cx="560.93" cy="547.26" r="7.73" fill="#f2f2f2"/>
    <polygon points="650.85 629.05 650.85 633.12 431.94 633.12 431.94 629.86 432.25 629.05 650.85 629.05" opacity="0.1" style="isolation:isolate"/>
    <rect x="73.13" y="287.62" width="139.67" height="162.5" fill="#2f2e41"/>
    <rect x="59.03" y="271.5" width="167.87" height="57.75" fill="#3f3d56"/>
    <rect x="59.03" y="339.99" width="167.87" height="57.75" fill="#3f3d56"/>
    <rect x="59.03" y="408.49" width="167.87" height="57.75" fill="#3f3d56"/>
    <rect x="182.58" y="281.58" width="10.74" height="10.74" fill="#6c63ff" opacity="0.4" style="isolation:isolate"/>
    <rect x="198.03" y="281.58" width="10.74" height="10.74" fill="#6c63ff" opacity="0.8" style="isolation:isolate"/>
    <rect x="213.47" y="281.58" width="10.74" height="10.74" fill="#6c63ff"/>
    <rect x="182.58" y="349.4" width="10.74" height="10.74" fill="#6c63ff" opacity="0.4" style="isolation:isolate"/>
    <rect x="198.03" y="349.4" width="10.74" height="10.74" fill="#6c63ff" opacity="0.8" style="isolation:isolate"/>
    <rect x="213.47" y="349.4" width="10.74" height="10.74" fill="#6c63ff"/>
    <rect x="182.58" y="417.22" width="10.74" height="10.74" fill="#6c63ff" opacity="0.4" style="isolation:isolate"/>
    <rect x="198.03" y="417.22" width="10.74" height="10.74" fill="#6c63ff" opacity="0.8" style="isolation:isolate"/>
    <rect x="213.47" y="417.22" width="10.74" height="10.74" fill="#6c63ff"/>
    <circle cx="212.8" cy="542.11" r="53.05" fill="#2f2e41"/>
    <rect x="188.63" y="583.74" width="16.12" height="28.87" fill="#2f2e41"/>
    <rect x="220.86" y="583.74" width="16.12" height="28.87" fill="#2f2e41"/>
    <ellipse cx="202.06" cy="612.95" rx="13.43" ry="5.04" fill="#2f2e41"/>
    <ellipse cx="234.29" cy="612.28" rx="13.43" ry="5.04" fill="#2f2e41"/>
    <circle cx="214.14" cy="528.68" r="18.13" fill="#fff"/>
    <circle cx="214.14" cy="528.68" r="6.04" fill="#3f3d56"/>
    <path d="M161.34,492.78c-4.28-19.18,9.41-38.57,30.58-43.29s41.81,7,46.1,26.17-9.75,26.26-30.93,31S165.62,512,161.34,492.78Z" fill="#6c63ff"/>
    <ellipse cx="259.28" cy="523.88" rx="26.52" ry="8.33" transform="translate(-185.22 144.28) rotate(-23.17)" fill="#2f2e41"/>
    <ellipse cx="159.9" cy="559.46" rx="26.52" ry="8.33" transform="translate(-207.24 108.05) rotate(-23.17)" fill="#2f2e41"/>
    <path d="M243.69,557.56c0,5.19-13.37,15.44-28.21,15.44s-28.87-9.58-28.87-14.77,14-4,28.87-4S243.69,552.36,243.69,557.56Z" fill="#fff"/>
  </g>
  <g id="b6a0220b-322a-435e-9212-1568a8115194">
    <rect x="1.05" width="751" height="650.22" fill="#fff" opacity="0"/>
  </g>
</svg>