<svg xmlns="http://www.w3.org/2000/svg" viewBox="0 0 752 651">
  <g id="a82e93cf-5769-44b9-87d7-e6c1d0b8b4f4">
    <path d="M610,196.19c-9.91-16.75-29.52-17.53-29.52-17.53s-19.1-2.44-31.36,23.06C537.73,225.49,522,248.45,546.62,254l4.45-13.86L553.83,255a92.83,92.83,0,0,0,10.55.18c26.4-.85,51.54.25,50.73-9.22C614,233.4,619.58,212.3,610,196.19Z" fill="#2f2e41"/>
    <ellipse cx="559.45" cy="618.29" rx="151.52" ry="8.79" fill="#3f3d56"/>
    <ellipse cx="197.55" cy="620.32" rx="192.11" ry="8.79" fill="#3f3d56"/>
    <ellipse cx="429.57" cy="640.61" rx="171.14" ry="8.79" fill="#3f3d56"/>
    <path d="M500.78,582.52c.62,21.35-11.85,29.17-27.51,29.63l-1.08,0c-.73,0-1.45,0-2.16,0-14.16-.59-25.36-8.11-25.94-28-.6-20.55,24.9-47.24,26.81-49.22h0l.11-.11S500.15,561.18,500.78,582.52Z" fill="#6c63ff"/>
    <path d="M472.15,608.92l9.94-14.79-9.92,16.38,0,1.66c-.73,0-1.45,0-2.16,0l.49-21.39v-.17l0,0,.05-2-10.89-15.81L470.56,587l0,.42.38-16.16-9.41-16.39L471,568.44,470.9,535v0l.62,26.39,8.57-10.72-8.54,13,.19,14.46L479.63,564l-7.85,16.23.1,8,11.47-19.65L471.91,591Z" fill="#3f3d56"/>
    <path d="M57.7,590c.63,21.35-11.85,29.18-27.5,29.63l-1.09,0c-.72,0-1.44,0-2.15,0C12.8,619,1.59,611.47,1,591.62c-.6-20.55,24.91-47.24,26.82-49.21h0l.11-.11S57.08,568.62,57.7,590Z" fill="#6c63ff"/>
    <path d="M29.07,616.36l10-14.79L29.09,618l0,1.66c-.72,0-1.44,0-2.15,0l.49-21.39V598l0,0,0-2L16.61,580.16l10.88,14.3,0,.42.37-16.16-9.41-16.39,9.44,13.55-.1-33.47v0l.63,26.39L37,558.07l-8.55,13,.19,14.46,7.89-14.11L28.7,587.64l.11,8L40.28,576,28.84,598.48Z" fill="#3f3d56"/>
    <path d="M694.7,602.66l50.1-74.5-50,82.52.11,8.38q-5.49,0-10.87-.18l2.48-107.77-.06-.83.09-.16.24-10.19-54.87-79.66,54.8,72,.2,2.15L688.79,413,641.4,330.45l47.53,68.28L688.43,230v-.56l0,.55,3.14,133,43.2-54-43,65.46.94,72.83,39.74-71.08L692.82,458l.53,40.5,57.8-99L693.52,512.61Z" fill="#3f3d56"/>
    <path d="M551.31,354.79s-11.61,31.11-4.18,59S574.07,508,574.07,508l26,51.54s14.86,10.22,23.69-10.68l-23.69-44.58,23.19-80.55a104,104,0,0,0,2.74-46.4c-1.33-7.65-3.58-15.3-7.35-21.19C618.65,356.18,558.28,346.9,551.31,354.79Z" fill="#2f2e41"/>
    <path d="M575.46,502.46l-13.93,72.45s14.4,10.21,22.75,7l13.94-53.4Z" fill="#2f2e41"/>
    <path d="M563.39,573.51,548.53,603.7l-6,12.07s-33,31.58-7,28.33,27.87-7.89,27.87-7.89l5.11-7.43,1.39,2.78s7.43-6,7.43-7.89-2.79-20.9-2.79-20.9l3.72-22.29Z" fill="#2f2e41"/>
    <path d="M605.65,559.12l7.89,21.36-4.64,18.58s-18.11,24.61.46,23.21,21.83-14.86,21.83-14.86l2.78-8.82,2.32.93,7-12.54-13-20.9-8.83-15.32Z" fill="#2f2e41"/>
    <path d="M654.87,380.8l2.79,14.39s11.61,26,0,26.94-11.61-25.55-11.61-25.55L647,385.9Z" fill="#ffb8b8"/>
    <path d="M454.72,306l-16.25-2.79s-32-16.71-31.58-4.64,30.18,17.65,30.18,17.65l8.83,3.25Z" fill="#ffb8b8"/>
    <circle cx="579.18" cy="216.87" r="21.36" fill="#ffb8b8"/>
    <path d="M569.89,231.26s4.64,17.65-3.72,21.37-9.28,6.5-9.28,6.5,55.72,17.64,59.9-3.25l-19-10.68s-1.86-14.86-3.71-15.79S569.89,231.26,569.89,231.26Z" fill="#ffb8b8"/>
    <path d="M636.35,268.27a5.61,5.61,0,0,0-2.41-3.41c-4.85-3.12-17.47-11.05-19.19-10.13-2.14,1.15-18.53,9-51-1,0,0-24.54,6.76-31.51,11.4s-21.52,19.64-21.52,19.64S444.67,295.46,445.13,301,440.4,320,440.4,320s43.29,8.8,87.26-9.47c0,0,13.9,32.22,12.51,38.25s-1.4,10.22,9.75,9.29,28.33-3.71,37.15-2.32,41.79,3.71,41.79,1.39V342.72s10.22,50.15,16.72,50.15,16.57-3.92,20.75-18.78L646,309.15Z" fill="#d0cde1"/>
    <rect x="530.37" y="454.25" width="100.1" height="2.03" transform="translate(61.65 979.7) rotate(-83.42)" opacity="0.2" style="isolation:isolate"/>
    <polygon points="605.66 195.34 586.29 185.19 559.54 189.34 554 213.78 567.78 213.25 571.63 204.27 571.63 213.11 577.99 212.86 581.67 198.56 583.98 213.78 606.58 213.32 605.66 195.34" fill="#2f2e41"/>
    <path d="M399.42,262.82a8.17,8.17,0,0,0-11.58,11.52l0,0,11.55,11.55L411,274.37a8.17,8.17,0,0,0-11.55-11.55Z" fill="#ff6584"/>
    <path d="M429.86,222.23a8.17,8.17,0,1,0-11.58,11.53l0,0,11.55,11.56,11.55-11.56a8.17,8.17,0,0,0-11.55-11.55Z" fill="#ff6584"/>
    <path d="M385.22,184.35a12,12,0,1,0-17,17h0l17,17,17-17a12,12,0,1,0-17-17Z" fill="#ff6584"/>
    <rect x="47.38" y="348.38" width="305.76" height="270.58" fill="#3f3d56"/>
    <rect x="72.41" y="375.44" width="256.37" height="160.99" fill="#fff"/>
    <path d="M222.19,537.4l.9-.29a58.45,58.45,0,0,0,40.52-57.88,57.78,57.78,0,0,0-3.56-17.91,58.38,58.38,0,1,0-73.5,75.49l.92.3h16.74Z" fill="#2f2e41"/>
    <polygon points="188.38 525.01 186.55 536.81 186.5 537.11 168.56 537.11 169.97 528.02 170.93 521.85 188.38 525.01" fill="#2f2e41"/>
    <polygon points="222.19 537.4 222.24 537.11 223.28 531.33 205.83 528.17 204.21 537.11 222.19 537.4" fill="#2f2e41"/>
    <circle cx="209.35" cy="467.24" r="19.95" fill="#fff"/>
    <circle cx="217.55" cy="460.09" r="6.65" fill="#3f3d56"/>
    <path d="M159.22,418c-.88-21.61,17.75-39.91,41.6-40.88s43.9,15.76,44.78,37.37S229.9,441,206,442,160.1,439.62,159.22,418Z" fill="#6c63ff"/>
    <ellipse cx="259.17" cy="470.88" rx="29.19" ry="9.16" transform="translate(-98.65 69.81) rotate(-12.91)" fill="#2f2e41"/>
    <ellipse cx="144.58" cy="489.94" rx="29.19" ry="9.16" transform="translate(-105.81 44.69) rotate(-12.91)" fill="#2f2e41"/>
    <path d="M189.24,504.52a13.3,13.3,0,1,0,26.17,4.76v0c1.31-7.23-4.28-9.79-11.51-11.1S190.54,497.29,189.24,504.52Z" fill="#fff"/>
    <rect x="72.41" y="560.79" width="156.94" height="9.47" fill="#6c63ff"/>
    <rect x="72.41" y="581.08" width="256.37" height="9.47" fill="#6c63ff"/>
  </g>
  <g id="b6a0220b-322a-435e-9212-1568a8115194">
    <rect y="0.39" width="751" height="650.22" fill="#fff" opacity="0"/>
  </g>
</svg>