<svg xmlns="http://www.w3.org/2000/svg" viewBox="0 0 752 651">
  <g id="b6a0220b-322a-435e-9212-1568a8115194">
    <rect x="203.99" y="258.4" width="11.77" height="2.18" transform="translate(-116.17 330.71) rotate(-63.36)" fill="#fff"/>
    <path d="M229.48,278.73a55.88,55.88,0,0,0-79,0h0a55.87,55.87,0,0,0-79,79v0l79,79,79-79a55.88,55.88,0,0,0,0-79Z" fill="#ff6584"/>
    <path d="M468.67,594.58H54a8,8,0,0,1-1.55-.12L248.56,254.74a13.74,13.74,0,0,1,23.91,0l131.62,228,6.31,10.9Z" fill="#6c63ff"/>
    <polygon points="468.67 594.58 327.09 594.58 396.59 493.62 401.59 486.35 404.09 482.72 410.4 493.62 468.67 594.58" opacity="0.2" style="isolation:isolate"/>
    <path d="M699.56,594.2H340.9l69.5-101,5-7.27L506,354.4c5.94-8.62,20.22-9.15,27.2-1.62a16.87,16.87,0,0,1,1.31,1.62Z" fill="#3f3d56"/>
    <rect y="593.29" width="752" height="1.9" fill="#3f3d56"/>
    <ellipse cx="350.64" cy="564.47" rx="27.39" ry="8.6" transform="matrix(0.93, -0.36, 0.36, 0.93, -180.23, 164.78)" fill="#2f2e41"/>
    <circle cx="295.78" cy="571.97" r="54.78" fill="#2f2e41"/>
    <rect x="270.82" y="614.95" width="16.64" height="29.82" fill="#2f2e41"/>
    <rect x="304.1" y="614.95" width="16.64" height="29.82" fill="#2f2e41"/>
    <ellipse cx="284.68" cy="645.12" rx="13.87" ry="5.2" fill="#2f2e41"/>
    <ellipse cx="317.97" cy="644.42" rx="13.87" ry="5.2" fill="#2f2e41"/>
    <circle cx="297.16" cy="558.1" r="18.72" fill="#fff"/>
    <circle cx="297.16" cy="558.1" r="6.24" fill="#3f3d56"/>
    <path d="M242.64,521c-4.42-19.8,9.72-39.82,31.58-44.7s43.18,7.22,47.6,27-10.07,27.12-31.93,32S247.07,540.83,242.64,521Z" fill="#e6e6e6"/>
    <ellipse cx="240.86" cy="578.73" rx="27.39" ry="8.6" transform="translate(-338.68 339.82) rotate(-45)" fill="#2f2e41"/>
    <path d="M268.87,591.73c0,5.36,13.81,15.94,29.12,15.94s29.68-15.09,29.68-20.45-14.36,1-29.68,1S268.87,586.37,268.87,591.73Z" fill="#fff"/>
    <ellipse cx="396.28" cy="564.47" rx="8.6" ry="27.39" transform="translate(-273.23 730.08) rotate(-68.82)" fill="#2f2e41"/>
    <circle cx="451.14" cy="571.97" r="54.78" fill="#2f2e41"/>
    <rect x="459.46" y="614.96" width="16.64" height="29.82" fill="#2f2e41"/>
    <rect x="426.18" y="614.96" width="16.64" height="29.82" fill="#2f2e41"/>
    <ellipse cx="462.24" cy="645.12" rx="13.87" ry="5.2" fill="#2f2e41"/>
    <ellipse cx="428.95" cy="644.42" rx="13.87" ry="5.2" fill="#2f2e41"/>
    <circle cx="449.75" cy="558.1" r="18.72" transform="translate(-173.18 912.65) rotate(-80.78)" fill="#fff"/>
    <circle cx="449.75" cy="558.1" r="6.24" fill="#3f3d56"/>
    <path d="M504.28,521c4.42-19.8-9.72-39.82-31.58-44.7s-43.18,7.22-47.6,27,10.07,27.12,31.93,32S499.85,540.83,504.28,521Z" fill="#6c63ff"/>
    <ellipse cx="506.06" cy="578.73" rx="8.6" ry="27.39" transform="translate(-261 527.35) rotate(-45)" fill="#2f2e41"/>
    <path d="M478.05,591.73c0,5.36-13.81,15.94-29.12,15.94s-29.68-15.09-29.68-20.45,14.36,1,29.68,1S478.05,586.37,478.05,591.73Z" fill="#fff"/>
    <path d="M752,513.48c0,35.4-21,47.76-47,47.76s-47-12.36-47-47.76S705,433,705,433,752,478.08,752,513.48Z" fill="#e6e6e6"/>
    <polygon points="703.28 555.82 703.76 526.2 723.8 489.54 703.84 521.55 704.06 508.23 717.86 481.71 704.11 504.7 704.11 504.7 704.5 480.74 719.29 459.63 704.57 476.98 704.81 433.04 703.28 491.2 703.4 488.8 688.37 465.79 703.16 493.41 701.76 520.16 701.72 519.46 684.39 495.24 701.67 521.96 701.49 525.31 701.46 525.36 701.48 525.63 697.92 593.52 702.67 593.52 703.24 558.46 720.48 531.8 703.28 555.82" fill="#3f3d56"/>
    <rect x="0.5" y="0.39" width="751" height="650.22" fill="#fff" opacity="0"/>
  </g>
</svg>