<svg id="Layer_1" data-name="Layer 1"
  xmlns="http://www.w3.org/2000/svg" viewBox="0 0 218 145">
  <g id="_1.001-Book-a-DevV2" data-name="1.001-Book-a-DevV2">
    <g id="Wizard">
      <g id="Group-8">
        <g id="Group">
          <g id="undraw_experience_design_eq3j" data-name="undraw experience design eq3j">
            <circle id="Oval" cx="156.74" cy="74.3" r="15.76" fill="#5d2784" opacity="0.4" style="isolation:isolate"/>
            <rect id="Rectangle" x="68.02" y="95.47" width="89.17" height="24.32" fill="#3f3d56"/>
            <path id="Path" d="M151.23,36.42l-3.53,1.64,3.12-2.29a17.31,17.31,0,0,0-1.7-2.21L133.8,37.3l13.84-5.18a19.53,19.53,0,0,0-2-1.51l-23.34,3.7A17,17,0,0,0,118.46,45h35.13a17,17,0,0,0-2.36-8.61Z" fill="#f2f2f2"/>
            <path id="Path-2" data-name="Path" d="M153.59,10.33A103.45,103.45,0,0,0,29.28,36.92C61.65,29.86,118,17.65,153.59,10.33Z" fill="#f2f2f2"/>
            <rect id="Rectangle-2" data-name="Rectangle" x="12.17" y="144.11" width="175.65" height="0.9" fill="#2f2e41"/>
            <path id="Path-3" data-name="Path" d="M135.82,45l-12-18s18.11,6.41,16,18Z" fill="#3f3d56"/>
            <path id="Path-4" data-name="Path" d="M136.23,45l12-18s-18.1,6.41-16.05,18Z" fill="#5d2784"/>
            <path id="Shape" d="M157.19,145H68V11.7h89.17Zm-88.76-.42h88.34V12.12H68.43Z" fill="#2f2e41"/>
            <rect id="Rectangle-3" data-name="Rectangle" x="68.92" y="15.09" width="88.27" height="0.9" fill="#2f2e41"/>
            <circle id="Oval-2" data-name="Oval" cx="70.72" cy="13.5" r="0.9" fill="#5d2784"/>
            <circle id="Oval-3" data-name="Oval" cx="72.52" cy="13.5" r="0.9" fill="#5d2784"/>
            <circle id="Oval-4" data-name="Oval" cx="75.22" cy="13.5" r="0.9" fill="#5d2784"/>
            <rect id="Rectangle-4" data-name="Rectangle" x="71.62" y="18" width="3.6" height="1.8" fill="#5d2784"/>
            <rect id="Rectangle-5" data-name="Rectangle" x="71.62" y="34.22" width="18.02" height="1.8" fill="#5d2784"/>
            <rect id="Rectangle-6" data-name="Rectangle" x="136.47" y="18" width="18.02" height="1.8" fill="#f2f2f2"/>
            <rect id="Rectangle-7" data-name="Rectangle" x="71.62" y="37.82" width="30.63" height="0.9" fill="#f2f2f2"/>
            <rect id="Rectangle-8" data-name="Rectangle" x="71.62" y="40.52" width="28.82" height="0.9" fill="#f2f2f2"/>
            <rect id="Rectangle-9" data-name="Rectangle" x="71.62" y="43.23" width="20.72" height="0.9" fill="#f2f2f2"/>
            <rect id="Rectangle-10" data-name="Rectangle" x="78.82" y="80.16" width="11.71" height="0.9" fill="#f2f2f2"/>
            <rect id="Rectangle-11" data-name="Rectangle" x="78.82" y="82.86" width="11.71" height="0.9" fill="#f2f2f2"/>
            <rect id="Rectangle-12" data-name="Rectangle" x="78.82" y="85.56" width="8.11" height="0.9" fill="#f2f2f2"/>
            <rect id="Rectangle-13" data-name="Rectangle" x="106.75" y="80.16" width="11.71" height="0.9" fill="#f2f2f2"/>
            <rect id="Rectangle-14" data-name="Rectangle" x="106.75" y="82.86" width="11.71" height="0.9" fill="#f2f2f2"/>
            <rect id="Rectangle-15" data-name="Rectangle" x="106.75" y="85.56" width="8.11" height="0.9" fill="#f2f2f2"/>
            <rect id="Rectangle-16" data-name="Rectangle" x="135.57" y="80.16" width="11.71" height="0.9" fill="#f2f2f2"/>
            <rect id="Rectangle-17" data-name="Rectangle" x="135.57" y="82.86" width="11.71" height="0.9" fill="#f2f2f2"/>
            <rect id="Rectangle-18" data-name="Rectangle" x="135.57" y="85.56" width="8.11" height="0.9" fill="#f2f2f2"/>
            <rect id="Rectangle-19" data-name="Rectangle" x="97.74" y="127" width="18.02" height="1.8" fill="#5d2784"/>
            <rect id="Rectangle-20" data-name="Rectangle" x="96.84" y="130.6" width="30.63" height="0.9" fill="#f2f2f2"/>
            <rect id="Rectangle-21" data-name="Rectangle" x="97.74" y="133.3" width="28.82" height="0.9" fill="#f2f2f2"/>
            <rect id="Rectangle-22" data-name="Rectangle" x="97.74" y="136" width="20.72" height="0.9" fill="#f2f2f2"/>
            <rect id="Rectangle-23" data-name="Rectangle" x="77.02" y="56.53" width="72.06" height="0.9" fill="#5d2784" opacity="0.3" style="isolation:isolate"/>
            <rect id="Rectangle-24" data-name="Rectangle" x="77.02" y="63.94" width="15.31" height="13.51" fill="#5d2784" opacity="0.3" style="isolation:isolate"/>
            <rect id="Rectangle-25" data-name="Rectangle" x="104.95" y="63.94" width="15.31" height="13.51" fill="#3f3d56"/>
            <rect id="Rectangle-26" data-name="Rectangle" x="133.77" y="63.94" width="15.31" height="13.51" fill="#3f3d56"/>
            <path id="Path-5" data-name="Path" d="M110.59,77.45h-.24c0-.23.15-5.69,2.57-7.2l.13.17C110.74,71.87,110.59,77.4,110.59,77.45Z" fill="#2fadd6"/>
            <circle id="Oval-5" data-name="Oval" cx="113.95" cy="69.35" r="0.9" fill="#2fadd6"/>
            <path id="Path-6" data-name="Path" d="M113.64,72.84a3.4,3.4,0,0,1-1.49,0,2.93,2.93,0,0,1,2.7-.77A3,3,0,0,1,113.64,72.84Z" fill="#2fadd6"/>
            <path id="Path-7" data-name="Path" d="M139.41,77.45h-.23c0-.23.15-5.69,2.56-7.2l.14.17C139.56,71.87,139.41,77.4,139.41,77.45Z" fill="#2fadd6"/>
            <circle id="Oval-6" data-name="Oval" cx="142.78" cy="69.35" r="0.9" fill="#2fadd6"/>
            <path id="Path-8" data-name="Path" d="M142.46,72.84a3.36,3.36,0,0,1-1.48,0,2.92,2.92,0,0,1,2.7-.77A3,3,0,0,1,142.46,72.84Z" fill="#2fadd6"/>
            <rect id="Rectangle-27" data-name="Rectangle" x="71.62" y="103.58" width="18.02" height="1.8" fill="#2fadd6"/>
            <rect id="Rectangle-28" data-name="Rectangle" x="71.62" y="107.18" width="30.63" height="0.9" fill="#f2f2f2"/>
            <rect id="Rectangle-29" data-name="Rectangle" x="71.62" y="109.88" width="28.82" height="0.9" fill="#f2f2f2"/>
            <rect id="Rectangle-30" data-name="Rectangle" x="71.62" y="112.58" width="20.72" height="0.9" fill="#f2f2f2"/>
            <circle id="Oval-7" data-name="Oval" cx="139.18" cy="106.28" r="6.31" fill="#2fadd6" opacity="0.4" style="isolation:isolate"/>
            <circle id="Oval-8" data-name="Oval" cx="127.47" cy="109.88" r="4.5" fill="#2fadd6" opacity="0.4" style="isolation:isolate"/>
            <circle id="Oval-9" data-name="Oval" cx="47.3" cy="120.69" r="16.21" fill="#2f2e41"/>
            <rect id="Rectangle-31" data-name="Rectangle" x="39.19" y="134.2" width="5.4" height="9.01" fill="#2f2e41"/>
            <rect id="Rectangle-32" data-name="Rectangle" x="49.1" y="134.2" width="5.4" height="9.01" fill="#2f2e41"/>
            <ellipse id="Oval-10" data-name="Oval" cx="43.24" cy="142.76" rx="4.05" ry="1.35" fill="#2f2e41"/>
            <ellipse id="Oval-11" data-name="Oval" cx="53.15" cy="142.76" rx="4.05" ry="1.35" fill="#2f2e41"/>
            <circle id="Oval-12" data-name="Oval" cx="47.3" cy="117.09" r="5.4" fill="#fff"/>
            <circle id="Oval-13" data-name="Oval" cx="47.3" cy="114.39" r="1.8" fill="#3f3d56"/>
            <path id="Path-9" data-name="Path" d="M31.33,105.62c-1.33-6,2.92-12,9.51-13.43s13,2.17,14.33,8.12-3,8.15-9.62,9.61S32.66,111.57,31.33,105.62Z" fill="#5d2784"/>
            <ellipse id="Oval-14" data-name="Oval" cx="59.31" cy="102.79" rx="8.2" ry="2.57" transform="matrix(0.42, -0.91, 0.91, 0.42, -58.9, 113.26)" fill="#2f2e41"/>
            <ellipse id="Oval-15" data-name="Oval" cx="29.23" cy="107.77" rx="2.57" ry="8.2" transform="translate(-47.02 26.2) rotate(-27.89)" fill="#2f2e41"/>
            <path id="Path-10" data-name="Path" d="M205.83,127c0,1.5-4.21,4.48-8.91,4.49s-9.1-4.2-9.1-5.7,4.4.28,9.09.26S205.83,125.51,205.83,127Z" fill="#fff"/>
            <circle id="Oval-16" data-name="Oval" cx="51.8" cy="72.05" r="16.21" fill="#2f2e41"/>
            <polygon id="Rectangle-33" data-name="Rectangle" points="42.02 83.72 46.92 84.61 45.33 93.4 40.44 92.51 42.02 83.72" fill="#2f2e41"/>
            <polygon id="Rectangle-34" data-name="Rectangle" points="51.82 85.5 56.72 86.39 55.13 95.17 50.23 94.29 51.82 85.5" fill="#2f2e41"/>
            <ellipse id="Oval-17" data-name="Oval" cx="53.53" cy="95.84" rx="1.56" ry="4.15" transform="translate(-54.2 74.75) rotate(-49.74)" fill="#2f2e41"/>
            <ellipse id="Oval-18" data-name="Oval" cx="43.94" cy="94.1" rx="1.56" ry="4.15" transform="translate(-56.26 66.82) rotate(-49.74)" fill="#2f2e41"/>
            <circle id="Oval-19" data-name="Oval" cx="52.7" cy="68.45" r="5.4" fill="#fff"/>
            <circle id="Oval-20" data-name="Oval" cx="55.4" cy="66.65" r="1.8" fill="#3f3d56"/>
            <path id="Path-11" data-name="Path" d="M38.3,54.56c-.25-6,5-11.06,11.7-11.32S62.35,47.6,62.6,53.59s-4.42,7.34-11.13,7.61S38.55,60.54,38.3,54.56Z" fill="#2fadd6"/>
            <ellipse id="Oval-21" data-name="Oval" cx="66.79" cy="69.4" rx="8.19" ry="2.58" transform="translate(-13.82 16.68) rotate(-12.91)" fill="#2f2e41"/>
            <ellipse id="Oval-22" data-name="Oval" cx="34.63" cy="74.75" rx="8.19" ry="2.58" transform="translate(-15.83 9.63) rotate(-12.91)" fill="#2f2e41"/>
            <path id="Path-12" data-name="Path" d="M47.36,78.49a3.7,3.7,0,0,0,2.9,4.31,3.61,3.61,0,0,0,4.19-3c.36-2-1.16-2.73-3.12-3.1S47.71,76.47,47.36,78.49Z" fill="#fff"/>
            <polygon id="Rectangle-35" data-name="Rectangle" points="75.54 54.64 90.24 59.06 86.31 72.19 71.61 67.77 75.54 54.64" fill="#3f3d56"/>
            <path id="Path-13" data-name="Path" d="M77.23,69.35,77,69.28c.08-.22,1.84-5.41,4.44-6.24l.07.2C79,64,77.25,69.29,77.23,69.35Z" fill="#2fadd6"/>
            <circle id="Oval-23" data-name="Oval" cx="82.43" cy="62.14" r="0.9" fill="#2fadd6"/>
            <path id="Path-14" data-name="Path" d="M81.09,65.74a2.37,2.37,0,0,1-1.36-.39,2.25,2.25,0,0,1,2.7-.11,2.56,2.56,0,0,1-1.34.5Z" fill="#2fadd6"/>
          </g>
        </g>
      </g>
    </g>
  </g>
</svg>