<svg id="Layer_1" data-name="Layer 1"
  xmlns="http://www.w3.org/2000/svg" viewBox="0 0 218 145">
  <g id="Page-1">
    <g id="_1.001-Book-a-DevV2" data-name="1.001-Book-a-DevV2">
      <g id="Wizard">
        <g id="Group-5">
          <g id="undraw_team_collaboration_8eoc" data-name="undraw team collaboration 8eoc">
            <rect id="Rectangle" x="18.42" y="40.68" width="4.61" height="6.14" fill="#3f3d56"/>
            <rect id="Rectangle-2" data-name="Rectangle" x="122.82" y="127.42" width="4.61" height="6.14" fill="#3f3d56"/>
            <polygon id="Rectangle-3" data-name="Rectangle" points="198.81 63.71 198.81 68.32 192.67 68.32 192.67 63.71 198.81 63.71" fill="#3f3d56"/>
            <circle id="Oval" cx="183.07" cy="113.99" r="18.81" fill="#2f2e41"/>
            <polygon id="Path" points="189.94 139.7 195.74 138.66 193.86 126.66 188.06 127.7 189.94 139.7" fill="#2f2e41"/>
            <polygon id="Rectangle-4" data-name="Rectangle" points="184.82 138.7 179.24 139.71 177.43 129.7 183.01 128.69 184.82 138.7" fill="#2f2e41"/>
            <ellipse id="Oval-2" data-name="Oval" cx="181.05" cy="140.46" rx="4.73" ry="1.77" transform="translate(-47.89 150.28) rotate(-40.26)" fill="#2f2e41"/>
            <ellipse id="Oval-3" data-name="Oval" cx="191.98" cy="140.14" rx="4.73" ry="1.77" transform="translate(-45.09 157.27) rotate(-40.26)" fill="#2f2e41"/>
            <circle id="Oval-4" data-name="Oval" cx="181.54" cy="109.38" r="6.52" fill="#fff"/>
            <circle id="Oval-5" data-name="Oval" cx="179.62" cy="106.7" r="2.3" fill="#3f3d56"/>
            <path id="Path-2" data-name="Path" d="M198,93.64c.28-6.89-5.67-12.72-13.3-13s-14,5-14.31,11.91,5,8.45,12.64,8.76S197.75,100.52,198,93.64Z" fill="#5d2784"/>
            <ellipse id="Oval-6" data-name="Oval" cx="165.96" cy="110.35" rx="2.93" ry="9.33" transform="translate(21.32 247.46) rotate(-77.09)" fill="#2f2e41"/>
            <ellipse id="Oval-7" data-name="Oval" cx="202.59" cy="116.45" rx="2.93" ry="9.33" transform="translate(43.82 287.9) rotate(-77.09)" fill="#2f2e41"/>
            <path id="Path-3" data-name="Path" d="M188,121.1a4,4,0,0,1-1.43,3.82,4.36,4.36,0,0,1-4.16.73,4.13,4.13,0,0,1-2.73-3.1c-.42-2.21,1.36-3,3.66-3.39S187.58,118.89,188,121.1Z" fill="#fff"/>
            <polygon id="Path-4" data-name="Path" points="86.61 126.18 85.97 134.46 92.11 135.1 90.63 125.12 86.61 126.18" fill="#ffb9b9"/>
            <path id="Path-5" data-name="Path" d="M64.44,49.59h0c5.36,1.63,8.23,7.71,6.39,13.58L68.5,70.62l-2.33-.71-.48-3.17-.53,2.87-15-4.54-.44-2.89-.48,2.61-1.69-.51,1.83-5.86C51.54,51.67,58.26,47.72,64.44,49.59Z" fill="#2f2e41"/>
            <path id="Path-6" data-name="Path" d="M56.31,71.44a3.5,3.5,0,0,0-2.77.71,3.59,3.59,0,0,0-1.33,2.55,4.08,4.08,0,0,0,2.4,4l13.78,7.79,18,3.48s9.1,7.3,10.24,3.15S88,86.45,88,86.45L71.46,82.18,60.92,74.51A8.54,8.54,0,0,0,56.31,71.44Z" fill="#ffb9b9"/>
            <polygon id="Path-7" data-name="Path" points="50.66 88.77 52.42 93.65 62.94 91.13 60.23 87.51 50.66 88.77" fill="#ffb9b9"/>
            <polygon id="Path-8" data-name="Path" points="21.36 136.63 13.05 135.85 18.87 130.49 23.03 133.17 21.36 136.63" fill="#ffb9b9"/>
            <circle id="Oval-8" data-name="Oval" cx="62.18" cy="59.87" r="6.91" fill="#ffb9b9"/>
            <path id="Path-9" data-name="Path" d="M57.42,60.64s-3.69,4.43-5.61,5.08-6.73,6.88-4.33,11,11.22-1,11.22-1l-.32-4.1s3.69-6.55,4.49-7.05S57.42,60.64,57.42,60.64Z" fill="#ffb9b9"/>
            <path id="Path-10" data-name="Path" d="M56.51,68.45a5.64,5.64,0,0,0-9.92,1.19c0,.07-.05.15-.08.23-1.33,4.37.67,11.83.67,11.83l3,8.75s7.83-3.57,13.5,2.43l-.83-6.16s2.33-5.18-.67-8.91C60.27,75.44,58.5,71.36,56.51,68.45Z" fill="#575a89"/>
            <path id="Path-11" data-name="Path" d="M18.16,135.57l-.33,2.52s-11-2.18-13.33-.17-2.33,3.35-4.16,2c-.78-.57-.11-2,.91-3.36a16.92,16.92,0,0,1,6.2-5.19C10.2,130,14,128.05,14,127.52c0-.84,3-3.36,4.16-2a49,49,0,0,1,3.33,5Z" fill="#2f2e41"/>
            <path id="Path-12" data-name="Path" d="M85.37,130.49s-2.38,8.37-1.51,8.79A10.17,10.17,0,0,0,89,141a16.85,16.85,0,0,1,5.43,1.5,13.23,13.23,0,0,0,6,1c1.36-.1,2.52-.41,2.42-1.23-.21-1.93-4.31-2.36-4.31-2.36l-4.32-5.58s-.76-3.54-1.4-3.54a1.36,1.36,0,0,1-1-.32Z" fill="#2f2e41"/>
            <path id="Path-13" data-name="Path" d="M60.43,51.67a5.27,5.27,0,0,1,4.57-.8l.18.06c3.62,1.11,5.54,5.26,4.29,9.27h0l-1.21-.37.27-1.54-.75,1.39-7.18-2.2L60.39,56l-.24,1.3-1.41-.43q-2.51,4.58-.18,10.64l-2.41-.74-.43-2.87-.47,2.6-4.59-1.41.88-6A10.23,10.23,0,0,1,60.43,51.67Z" fill="#2f2e41"/>
            <rect id="Rectangle-5" data-name="Rectangle" x="90.58" y="11.51" width="55.27" height="104.39" fill="#f2f2f2"/>
            <path id="Shape" d="M159.66,115.91H90.58V0h69.08ZM91,115.48h68.22V.43H91Z" fill="#3f3d56"/>
            <rect id="Rectangle-6" data-name="Rectangle" x="9.98" y="143.54" width="208.02" height="1" fill="#3f3d56"/>
            <path id="Shape-2" data-name="Shape" d="M151.22,60.64H99V12.28h52.2Zm-51.77-.43h51.34V12.72H99.45Z" fill="#3f3d56"/>
            <polygon id="Path-14" data-name="Path" points="99.33 48.36 99.02 48.05 115.36 31.71 124.96 41.31 150.91 15.35 151.22 15.66 124.96 41.92 115.36 32.32 99.33 48.36" fill="#3f3d56"/>
            <circle id="Oval-9" data-name="Oval" cx="115.14" cy="31.47" r="3.07" fill="#2fadd6"/>
            <circle id="Oval-10" data-name="Oval" cx="125.12" cy="40.68" r="3.07" fill="#2fadd6"/>
            <circle id="Oval-11" data-name="Oval" cx="151.22" cy="15.35" r="3.07" fill="#2fadd6"/>
            <rect id="Rectangle-7" data-name="Rectangle" x="105.93" y="74.46" width="39.15" height="3.84" fill="#3f3d56"/>
            <polygon id="Path-15" data-name="Path" points="134.33 106.7 115.91 106.7 115.91 88.28 128.41 88.28 128.41 88.71 116.35 88.71 116.35 106.26 133.89 106.26 133.89 97.49 134.33 97.49 134.33 106.7" fill="#3f3d56"/>
            <polygon id="Path-16" data-name="Path" points="125.18 101.32 121.28 96.27 122.69 95.25 125.37 98.73 137.7 86.74 138.94 87.94 125.18 101.32" fill="#2fadd6"/>
            <path id="Path-17" data-name="Path" d="M64,93.72s-3.92-5.28-11.92-2.15l-1.47,4.12s-8.5,6.77-3.76,17.16l-.33,15.5-1.3,4.45-23.69-2-.81,7.59,4.24.33s24,9.56,27.77,3.63S64.34,113,64.34,113l20.34,3.08s-.6,6.42.06,7.25.32,4.28.65,4.94a5.78,5.78,0,0,1,0,2.38l6.75-.23v-3.29s.82-4.46.82-5.61,4.9-16.33-3.59-17.65-23.12-3.73-23.12-3.73Z" fill="#2f2e41"/>
            <path id="Path-18" data-name="Path" d="M55.64,67.83a4,4,0,0,0-2.31-2.32,3.94,3.94,0,0,0-3.24.18c-1.34.68-2.57,2-2.5,4.73.17,5.74.49,18.2.49,18.2l7.11,19.83s-1.78,13.28,2.91,12S59.55,108,59.55,108L54.06,89.11l1.29-14.92S56.74,70.76,55.64,67.83Z" fill="#ffb9b9"/>
          </g>
        </g>
      </g>
    </g>
  </g>
</svg>